<?xml version="1.0" encoding="UTF-8" standalone="no"?>
<!DOCTYPE svg PUBLIC "-//W3C//DTD SVG 1.1//EN" "http://www.w3.org/Graphics/SVG/1.1/DTD/svg11.dtd">
<svg width="100%" height="100%" viewBox="0 0 128 128" version="1.1" xmlns="http://www.w3.org/2000/svg" xmlns:xlink="http://www.w3.org/1999/xlink" xml:space="preserve" xmlns:serif="http://www.serif.com/" style="fill-rule:evenodd;clip-rule:evenodd;stroke-linejoin:round;stroke-miterlimit:2;">
    <g transform="matrix(1.96735,0,0,1.96735,-133.028,-889.198)">
        <path d="M103.495,462.013L102.385,477.152L98.448,477.152L97.338,462.013L103.495,462.013ZM96.026,478.465C96.026,479.171 96.631,479.676 97.237,479.676L103.596,479.676C104.303,479.676 104.808,479.171 104.808,478.465L106.12,460.801C106.221,460.095 105.615,459.489 104.908,459.489L96.026,459.489C95.319,459.489 94.713,460.095 94.814,460.801L96.026,478.465Z" style="fill:rgb(9,15,55);fill-rule:nonzero;"/>
        <path d="M102.385,487.246L98.549,487.246L98.549,483.41L102.385,483.41L102.385,487.246ZM103.596,480.988L97.237,480.988C96.53,480.988 95.925,481.594 95.925,482.3L95.925,488.659C95.925,489.365 96.53,489.971 97.237,489.971L103.596,489.971C104.303,489.971 104.908,489.365 104.908,488.659L104.908,482.3C104.908,481.492 104.303,480.988 103.596,480.988Z" style="fill:rgb(9,15,55);fill-rule:nonzero;"/>
        <path d="M100.669,456.966C110.561,457.066 118.535,465.242 118.535,475.033C118.535,482.401 114.093,489.063 107.23,491.788C106.725,491.99 106.422,492.394 106.422,492.999L106.422,497.34L104.202,497.34L104.202,493.504C104.202,492.797 103.596,492.191 102.89,492.191C102.183,492.191 101.578,492.797 101.578,493.504L101.578,497.34L99.054,497.34L99.054,493.504C99.054,492.797 98.448,492.191 97.742,492.191C97.035,492.191 96.429,492.797 96.429,493.504L96.429,497.34L94.209,497.34L94.209,492.999C94.209,492.494 93.906,491.99 93.401,491.788C86.437,488.962 81.996,482.3 82.097,474.831C82.399,464.94 90.676,456.864 100.669,456.966ZM109.249,500.469C109.249,500.772 108.946,501.074 108.643,501.074L92.493,501.074C92.19,501.074 91.887,500.772 91.887,500.469C91.887,500.165 92.19,499.862 92.493,499.862L108.643,499.862C108.946,499.862 109.249,500.165 109.249,500.469ZM107.23,504.909L93.704,504.909C93.401,504.909 93.099,504.607 93.099,504.304C93.099,504.001 93.3,503.698 93.603,503.698L107.331,503.698C107.634,503.799 107.835,504.001 107.835,504.304C107.835,504.607 107.634,504.909 107.23,504.909ZM103.495,508.038C103.495,508.341 103.192,508.644 102.89,508.644L98.044,508.644C97.742,508.644 97.439,508.341 97.439,508.038C97.439,507.735 97.742,507.433 98.044,507.433L102.89,507.433C103.293,507.433 103.495,507.735 103.495,508.038ZM91.988,493.807L91.988,497.34C90.474,497.541 89.263,498.854 89.263,500.469C89.263,501.578 89.869,502.588 90.777,503.193C90.07,505.212 91.585,507.433 93.704,507.433L94.916,507.433C94.512,509.351 96.026,511.269 98.044,511.269L102.89,511.269C104.908,511.269 106.422,509.451 106.019,507.433L107.23,507.433C109.451,507.433 110.964,505.212 110.157,503.193C111.065,502.689 111.671,501.68 111.671,500.469C111.671,498.854 110.46,497.541 108.946,497.34L108.946,493.807C116.112,490.577 121.058,483.31 121.058,475.033C121.058,463.627 111.873,454.442 100.467,454.442C89.162,454.442 79.977,463.627 79.876,474.932C79.775,483.209 84.721,490.577 91.988,493.807Z" style="fill:rgb(9,15,55);fill-rule:nonzero;"/>
        <path d="M92.19,488.054C92.796,488.457 93.502,488.255 93.906,487.751C94.31,487.145 94.108,486.338 93.603,486.034C87.446,481.997 86.235,473.519 90.878,467.866C91.282,467.361 91.282,466.555 90.676,466.05C90.171,465.646 89.364,465.646 88.859,466.252C83.409,473.014 84.822,483.209 92.19,488.054Z" style="fill:rgb(9,15,55);fill-rule:nonzero;"/>
        <path d="M108.744,488.054C116.213,483.108 117.525,472.913 112.075,466.252C111.671,465.747 110.863,465.646 110.258,466.05C109.753,466.453 109.652,467.261 110.056,467.866C114.598,473.519 113.488,481.897 107.331,486.034C106.725,486.439 106.625,487.246 107.028,487.751C107.331,488.357 108.138,488.457 108.744,488.054Z" style="fill:rgb(9,15,55);fill-rule:nonzero;"/>
        <path d="M121.966,512.48L79.069,512.48C78.362,512.48 77.756,513.085 77.756,513.792C77.756,514.498 78.362,515.105 79.069,515.105L121.966,515.105C122.673,515.105 123.278,514.498 123.278,513.792C123.178,513.085 122.572,512.48 121.966,512.48Z" style="fill:rgb(9,15,55);fill-rule:nonzero;"/>
        <rect x="118.131" y="456.966" width="5.047" height="2.523" style="fill:rgb(9,15,55);fill-rule:nonzero;"/>
        <rect x="124.49" y="456.966" width="2.523" height="2.523" style="fill:rgb(9,15,55);fill-rule:nonzero;"/>
        <rect x="75.233" y="493.605" width="3.836" height="2.523" style="fill:rgb(9,15,55);fill-rule:nonzero;"/>
        <rect x="80.28" y="493.605" width="2.523" height="2.523" style="fill:rgb(9,15,55);fill-rule:nonzero;"/>
        <rect x="123.178" y="480.988" width="2.523" height="2.524" style="fill:rgb(9,15,55);fill-rule:nonzero;"/>
        <rect x="123.178" y="484.723" width="2.523" height="2.523" style="fill:rgb(9,15,55);fill-rule:nonzero;"/>
        <rect x="123.178" y="488.558" width="2.523" height="2.523" style="fill:rgb(9,15,55);fill-rule:nonzero;"/>
        <path d="M124.49,465.747C125.214,465.747 125.802,466.334 125.802,467.059C125.802,467.783 125.214,468.371 124.49,468.371C123.765,468.371 123.178,467.783 123.178,467.059C123.178,466.334 123.765,465.747 124.49,465.747Z" style="fill:rgb(9,15,55);fill-rule:nonzero;"/>
        <path d="M114.396,506.121C115.121,506.121 115.708,506.708 115.708,507.433C115.708,508.157 115.121,508.745 114.396,508.745C113.671,508.745 113.084,508.157 113.084,507.433C113.084,506.708 113.671,506.121 114.396,506.121Z" style="fill:rgb(9,15,55);fill-rule:nonzero;"/>
        <path d="M125.701,512.48C126.426,512.48 127.013,513.067 127.013,513.792C127.013,514.517 126.426,515.105 125.701,515.105C124.976,515.105 124.389,514.517 124.389,513.792C124.389,513.067 124.976,512.48 125.701,512.48Z" style="fill:rgb(9,15,55);fill-rule:nonzero;"/>
        <path d="M85.327,498.551C86.051,498.551 86.639,499.138 86.639,499.862C86.639,500.587 86.051,501.175 85.327,501.175C84.602,501.175 84.015,500.587 84.015,499.862C84.015,499.138 84.602,498.551 85.327,498.551Z" style="fill:rgb(9,15,55);fill-rule:nonzero;"/>
        <path d="M76.545,483.41C77.27,483.41 77.857,483.998 77.857,484.723C77.857,485.447 77.27,486.034 76.545,486.034C75.821,486.034 75.233,485.447 75.233,484.723C75.233,483.998 75.821,483.41 76.545,483.41Z" style="fill:rgb(9,15,55);fill-rule:nonzero;"/>
        <path d="M82.803,455.653C83.528,455.653 84.115,456.241 84.115,456.966C84.115,457.691 83.528,458.277 82.803,458.277C82.079,458.277 81.491,457.691 81.491,456.966C81.491,456.241 82.079,455.653 82.803,455.653Z" style="fill:rgb(9,15,55);fill-rule:nonzero;"/>
        <path d="M75.233,462.013C75.233,461.306 75.839,460.7 76.545,460.7C77.252,460.7 77.857,461.306 77.857,462.013C77.857,462.719 77.252,463.324 76.545,463.324C75.839,463.324 75.233,462.719 75.233,462.013ZM80.28,462.013C80.28,459.893 78.564,458.177 76.444,458.177C74.325,458.177 72.609,459.893 72.609,462.013C72.609,464.132 74.325,465.848 76.444,465.848C78.564,465.848 80.28,464.132 80.28,462.013Z" style="fill:rgb(9,15,55);fill-rule:nonzero;"/>
        <path d="M120.049,499.862C119.039,499.862 118.131,499.056 118.131,497.945C118.131,496.835 118.938,496.027 120.049,496.027C121.159,496.027 121.966,496.835 121.966,497.945C121.966,499.056 121.058,499.862 120.049,499.862ZM120.049,493.605C117.626,493.605 115.607,495.623 115.607,498.046C115.607,500.469 117.626,502.487 120.049,502.487C122.471,502.487 124.49,500.469 124.49,498.046C124.49,495.623 122.471,493.605 120.049,493.605Z" style="fill:rgb(9,15,55);fill-rule:nonzero;"/>
        <path d="M77.756,506.827C77.756,506.524 78.059,506.222 78.362,506.222C78.665,506.222 78.968,506.524 78.968,506.827C78.968,507.13 78.665,507.433 78.362,507.433C78.059,507.433 77.756,507.13 77.756,506.827ZM81.592,506.827C81.592,505.111 80.179,503.698 78.463,503.698C76.747,503.698 75.233,505.111 75.233,506.827C75.233,508.543 76.646,509.956 78.362,509.956C80.078,509.956 81.592,508.543 81.592,506.827Z" style="fill:rgb(9,15,55);fill-rule:nonzero;"/>
    </g>
</svg>
