<?xml version="1.0" encoding="UTF-8" standalone="no"?>
<!DOCTYPE svg PUBLIC "-//W3C//DTD SVG 1.1//EN" "http://www.w3.org/Graphics/SVG/1.1/DTD/svg11.dtd">
<svg width="100%" height="100%" viewBox="0 0 128 128" version="1.1" xmlns="http://www.w3.org/2000/svg" xmlns:xlink="http://www.w3.org/1999/xlink" xml:space="preserve" xmlns:serif="http://www.serif.com/" style="fill-rule:evenodd;clip-rule:evenodd;stroke-linejoin:round;stroke-miterlimit:2;">
    <g transform="matrix(2.03861,0,0,2.03861,-66.8808,-65.7847)">
        <g transform="matrix(1,0,0,1,-800.643,-420.673)">
            <path d="M838.299,458.277L849.705,458.277L849.705,462.113L838.299,462.113L838.299,458.277ZM858.486,462.013L852.127,462.013L852.127,458.177L858.486,458.177L858.486,462.013ZM855.962,468.371L847.081,468.371L847.081,464.535L855.962,464.535L855.962,468.371ZM852.228,474.629L838.299,474.629L838.299,470.794L852.228,470.794L852.228,474.629ZM855.962,477.152L855.962,480.988L849.604,480.988L849.604,477.152L855.962,477.152ZM852.228,487.246L845.87,487.246L845.87,483.41L852.228,483.41L852.228,487.246ZM845.87,493.605L838.299,493.605L838.299,489.77L845.87,489.77L845.87,493.605ZM843.346,487.246L838.299,487.246L838.299,483.41L843.346,483.41L843.346,487.246ZM847.181,480.988L838.299,480.988L838.299,477.152L847.181,477.152L847.181,480.988ZM844.658,468.371L838.299,468.371L838.299,464.535L844.658,464.535L844.658,468.371ZM837.087,496.128L856.064,496.128C856.77,496.128 857.375,495.523 857.375,494.816C857.375,494.109 856.77,493.504 856.064,493.504L848.392,493.504L848.392,489.77L859.798,489.77C860.504,489.77 861.11,489.164 861.11,488.457C861.11,487.751 860.504,487.145 859.798,487.145L854.751,487.145L854.751,483.31L857.275,483.31C857.981,483.31 858.586,482.704 858.586,481.997L858.586,476.95L859.899,476.95C860.606,476.95 861.211,476.345 861.211,475.639C861.211,474.932 860.606,474.326 859.899,474.326L854.852,474.326L854.852,470.491L862.422,470.491C863.129,470.491 863.735,469.885 863.735,469.179C863.735,468.472 863.129,467.866 862.422,467.866L858.486,467.866L858.486,464.535L873.626,464.535C874.333,464.535 874.938,463.93 874.938,463.224C874.938,462.517 874.333,461.911 873.626,461.911L861.009,461.911L861.009,458.076L869.892,458.076C870.598,458.076 871.204,457.47 871.204,456.764C871.204,456.057 870.598,455.451 869.892,455.451L837.087,455.451C836.381,455.451 835.776,456.057 835.776,456.764L835.776,494.614C835.776,495.523 836.381,496.128 837.087,496.128Z" style="fill:rgb(9,15,55);fill-rule:nonzero;"/>
        </g>
        <g transform="matrix(1,0,0,1,-800.643,-420.673)">
            <path d="M875.948,474.024L875.948,472.913C878.774,474.024 880.893,476.648 881.297,479.676L864.239,479.676C864.643,476.648 866.762,474.024 869.588,472.913L869.588,474.024C869.588,475.739 871.001,477.152 872.717,477.152C874.433,477.152 875.948,475.739 875.948,474.024ZM873.424,471.197L873.424,473.923C873.424,474.226 873.122,474.528 872.819,474.528C872.516,474.528 872.213,474.226 872.213,473.923L872.213,471.197C872.213,470.39 871.506,469.784 870.699,469.986C865.854,470.895 862.322,474.932 861.716,479.676L860.807,479.676C860.101,479.676 859.496,480.281 859.496,480.988C859.496,481.694 860.101,482.3 860.807,482.3L884.83,482.3C885.537,482.3 886.142,481.694 886.142,480.988C886.142,480.281 885.537,479.676 884.83,479.676L883.921,479.676C883.417,474.932 879.783,470.895 874.938,469.986C874.13,469.885 873.424,470.39 873.424,471.197Z" style="fill:rgb(9,15,55);fill-rule:nonzero;"/>
        </g>
        <g transform="matrix(1,0,0,1,-800.643,-420.673)">
            <path d="M890.886,511.269L887.05,511.269L887.05,507.433C887.05,506.727 886.445,506.121 885.738,506.121C885.032,506.121 884.426,506.727 884.426,507.433L884.426,511.269L860.606,511.269L860.606,507.433C860.606,506.727 860,506.121 859.293,506.121C858.586,506.121 857.981,506.727 857.981,507.433L857.981,511.269L854.549,511.269L854.549,505.314C858.688,499.358 865.349,495.725 872.617,495.725C879.884,495.725 886.647,499.257 890.684,505.314L890.684,511.269L890.886,511.269ZM864.239,485.833L881.297,485.833C880.692,489.971 877.058,493.201 872.717,493.201C868.377,493.201 864.845,489.971 864.239,485.833ZM893.208,504.203C889.776,499.056 884.628,495.422 878.774,493.907C881.903,491.889 883.921,488.457 883.921,484.521C883.921,483.815 883.316,483.209 882.609,483.209L862.927,483.209C862.22,483.209 861.615,483.815 861.615,484.521C861.615,488.457 863.633,491.889 866.762,493.907C860.909,495.422 855.76,498.954 852.329,504.203C852.228,504.404 852.127,504.607 852.127,504.909L852.127,512.58C852.127,513.287 852.733,513.894 853.439,513.894L892.198,513.894C892.905,513.894 893.51,513.287 893.51,512.58L893.51,504.909C893.41,504.607 893.41,504.404 893.208,504.203Z" style="fill:rgb(9,15,55);fill-rule:nonzero;"/>
        </g>
        <g transform="matrix(1,0,0,1,-800.643,-420.673)">
            <path d="M890.079,477.152C890.803,477.152 891.391,477.74 891.391,478.465C891.391,479.19 890.803,479.776 890.079,479.776C889.354,479.776 888.766,479.19 888.766,478.465C888.766,477.74 889.354,477.152 890.079,477.152Z" style="fill:rgb(9,15,55);fill-rule:nonzero;"/>
        </g>
        <g transform="matrix(1,0,0,1,-800.643,-420.673)">
            <path d="M888.766,489.77C889.491,489.77 890.079,490.357 890.079,491.081C890.079,491.806 889.491,492.394 888.766,492.394C888.042,492.394 887.455,491.806 887.455,491.081C887.455,490.357 888.042,489.77 888.766,489.77Z" style="fill:rgb(9,15,55);fill-rule:nonzero;"/>
        </g>
        <g transform="matrix(1,0,0,1,-800.643,-420.673)">
            <path d="M848.392,507.433C849.117,507.433 849.705,508.021 849.705,508.745C849.705,509.47 849.117,510.057 848.392,510.057C847.667,510.057 847.081,509.47 847.081,508.745C847.081,508.021 847.667,507.433 848.392,507.433Z" style="fill:rgb(9,15,55);fill-rule:nonzero;"/>
        </g>
        <g transform="matrix(1,0,0,1,-800.643,-420.673)">
            <path d="M877.461,462.013C878.186,462.013 878.774,462.6 878.774,463.324C878.774,464.049 878.186,464.637 877.461,464.637C876.737,464.637 876.15,464.049 876.15,463.324C876.15,462.6 876.737,462.013 877.461,462.013Z" style="fill:rgb(9,15,55);fill-rule:nonzero;"/>
        </g>
        <g transform="matrix(1,0,0,1,-800.643,-420.673)">
            <rect x="881.197" y="456.966" width="5.046" height="2.523" style="fill:rgb(9,15,55);fill-rule:nonzero;"/>
        </g>
        <g transform="matrix(1,0,0,1,-800.643,-420.673)">
            <rect x="887.555" y="456.966" width="2.524" height="2.523" style="fill:rgb(9,15,55);fill-rule:nonzero;"/>
        </g>
        <g transform="matrix(1,0,0,1,-800.643,-420.673)">
            <rect x="839.611" y="499.862" width="5.047" height="2.524" style="fill:rgb(9,15,55);fill-rule:nonzero;"/>
        </g>
        <g transform="matrix(1,0,0,1,-800.643,-420.673)">
            <rect x="845.87" y="499.862" width="2.522" height="2.524" style="fill:rgb(9,15,55);fill-rule:nonzero;"/>
        </g>
        <g transform="matrix(1,0,0,1,-800.643,-420.673)">
            <path d="M887.555,467.059C888.261,467.059 888.868,467.664 888.868,468.371C888.868,469.078 888.161,469.582 887.555,469.582C886.95,469.582 886.243,468.977 886.243,468.271C886.243,467.564 886.848,467.059 887.555,467.059ZM883.719,468.371C883.719,470.491 885.435,472.207 887.555,472.207C889.674,472.207 891.391,470.491 891.391,468.371C891.391,466.252 889.574,464.535 887.555,464.535C885.537,464.535 883.719,466.252 883.719,468.371Z" style="fill:rgb(9,15,55);fill-rule:nonzero;"/>
        </g>
        <g transform="matrix(1,0,0,1,-800.643,-420.673)">
            <path d="M838.905,511.269C838.602,511.269 838.299,510.966 838.299,510.663C838.299,510.359 838.602,510.057 838.905,510.057C839.208,510.057 839.51,510.359 839.51,510.663C839.611,510.966 839.308,511.269 838.905,511.269ZM838.905,507.433C837.189,507.433 835.776,508.846 835.776,510.562C835.776,512.277 837.189,513.691 838.905,513.691C840.621,513.691 842.034,512.277 842.034,510.562C842.134,508.846 840.621,507.433 838.905,507.433Z" style="fill:rgb(9,15,55);fill-rule:nonzero;"/>
        </g>
    </g>
</svg>
