<?xml version="1.0" encoding="UTF-8" standalone="no"?>
<!DOCTYPE svg PUBLIC "-//W3C//DTD SVG 1.1//EN" "http://www.w3.org/Graphics/SVG/1.1/DTD/svg11.dtd">
<svg width="100%" height="100%" viewBox="0 0 128 128" version="1.1" xmlns="http://www.w3.org/2000/svg" xmlns:xlink="http://www.w3.org/1999/xlink" xml:space="preserve" xmlns:serif="http://www.serif.com/" style="fill-rule:evenodd;clip-rule:evenodd;stroke-linejoin:round;stroke-miterlimit:2;">
    <g transform="matrix(1.90644,0,0,1.90644,-57.8312,-57.0444)">
        <g transform="matrix(1,0,0,1,-163.594,-292.99)">
            <rect x="245.309" y="331.1" width="5.046" height="2.523" style="fill:rgb(9,15,55);fill-rule:nonzero;"/>
        </g>
        <g transform="matrix(1,0,0,1,-163.594,-292.99)">
            <rect x="251.667" y="331.1" width="2.524" height="2.523" style="fill:rgb(9,15,55);fill-rule:nonzero;"/>
        </g>
        <g transform="matrix(1,0,0,1,-163.594,-292.99)">
            <rect x="201.2" y="338.67" width="5.047" height="2.523" style="fill:rgb(9,15,55);fill-rule:nonzero;"/>
        </g>
        <g transform="matrix(1,0,0,1,-163.594,-292.99)">
            <rect x="207.458" y="338.67" width="2.523" height="2.523" style="fill:rgb(9,15,55);fill-rule:nonzero;"/>
        </g>
        <g transform="matrix(1,0,0,1,-163.594,-292.99)">
            <rect x="218.863" y="341.193" width="2.524" height="2.524" style="fill:rgb(9,15,55);fill-rule:nonzero;"/>
        </g>
        <g transform="matrix(1,0,0,1,-163.594,-292.99)">
            <rect x="222.598" y="341.193" width="3.836" height="2.524" style="fill:rgb(9,15,55);fill-rule:nonzero;"/>
        </g>
        <g transform="matrix(1,0,0,1,-163.594,-292.99)">
            <rect x="227.645" y="341.193" width="2.523" height="2.524" style="fill:rgb(9,15,55);fill-rule:nonzero;"/>
        </g>
        <g transform="matrix(1,0,0,1,-163.594,-292.99)">
            <rect x="236.527" y="341.193" width="2.523" height="2.524" style="fill:rgb(9,15,55);fill-rule:nonzero;"/>
        </g>
        <g transform="matrix(1,0,0,1,-163.594,-292.99)">
            <rect x="231.48" y="341.193" width="3.836" height="2.524" style="fill:rgb(9,15,55);fill-rule:nonzero;"/>
        </g>
        <g transform="matrix(1,0,0,1,-163.594,-292.99)">
            <rect x="218.863" y="344.928" width="2.524" height="2.523" style="fill:rgb(9,15,55);fill-rule:nonzero;"/>
        </g>
        <g transform="matrix(1,0,0,1,-163.594,-292.99)">
            <rect x="222.598" y="344.928" width="3.836" height="2.523" style="fill:rgb(9,15,55);fill-rule:nonzero;"/>
        </g>
        <g transform="matrix(1,0,0,1,-163.594,-292.99)">
            <rect x="227.645" y="344.928" width="2.523" height="2.523" style="fill:rgb(9,15,55);fill-rule:nonzero;"/>
        </g>
        <g transform="matrix(1,0,0,1,-163.594,-292.99)">
            <rect x="236.527" y="344.928" width="2.523" height="2.523" style="fill:rgb(9,15,55);fill-rule:nonzero;"/>
        </g>
        <g transform="matrix(1,0,0,1,-163.594,-292.99)">
            <rect x="231.48" y="344.928" width="3.836" height="2.523" style="fill:rgb(9,15,55);fill-rule:nonzero;"/>
        </g>
        <g transform="matrix(1,0,0,1,-163.594,-292.99)">
            <rect x="218.863" y="348.764" width="2.524" height="2.523" style="fill:rgb(9,15,55);fill-rule:nonzero;"/>
        </g>
        <g transform="matrix(1,0,0,1,-163.594,-292.99)">
            <rect x="222.598" y="348.764" width="3.836" height="2.523" style="fill:rgb(9,15,55);fill-rule:nonzero;"/>
        </g>
        <g transform="matrix(1,0,0,1,-163.594,-292.99)">
            <rect x="227.645" y="348.764" width="2.523" height="2.523" style="fill:rgb(9,15,55);fill-rule:nonzero;"/>
        </g>
        <g transform="matrix(1,0,0,1,-163.594,-292.99)">
            <rect x="236.527" y="348.764" width="2.523" height="2.523" style="fill:rgb(9,15,55);fill-rule:nonzero;"/>
        </g>
        <g transform="matrix(1,0,0,1,-163.594,-292.99)">
            <rect x="231.48" y="348.764" width="3.836" height="2.523" style="fill:rgb(9,15,55);fill-rule:nonzero;"/>
        </g>
        <g transform="matrix(1,0,0,1,-163.594,-292.99)">
            <rect x="218.863" y="352.498" width="2.524" height="2.524" style="fill:rgb(9,15,55);fill-rule:nonzero;"/>
        </g>
        <g transform="matrix(1,0,0,1,-163.594,-292.99)">
            <rect x="222.598" y="352.498" width="3.836" height="2.524" style="fill:rgb(9,15,55);fill-rule:nonzero;"/>
        </g>
        <g transform="matrix(1,0,0,1,-163.594,-292.99)">
            <rect x="227.645" y="352.498" width="2.523" height="2.524" style="fill:rgb(9,15,55);fill-rule:nonzero;"/>
        </g>
        <g transform="matrix(1,0,0,1,-163.594,-292.99)">
            <rect x="236.527" y="352.498" width="2.523" height="2.524" style="fill:rgb(9,15,55);fill-rule:nonzero;"/>
        </g>
        <g transform="matrix(1,0,0,1,-163.594,-292.99)">
            <rect x="231.48" y="352.498" width="3.836" height="2.524" style="fill:rgb(9,15,55);fill-rule:nonzero;"/>
        </g>
        <g transform="matrix(1,0,0,1,-163.594,-292.99)">
            <rect x="218.863" y="356.334" width="2.524" height="2.524" style="fill:rgb(9,15,55);fill-rule:nonzero;"/>
        </g>
        <g transform="matrix(1,0,0,1,-163.594,-292.99)">
            <rect x="222.598" y="356.334" width="3.836" height="2.524" style="fill:rgb(9,15,55);fill-rule:nonzero;"/>
        </g>
        <g transform="matrix(1,0,0,1,-163.594,-292.99)">
            <rect x="227.645" y="356.334" width="2.523" height="2.524" style="fill:rgb(9,15,55);fill-rule:nonzero;"/>
        </g>
        <g transform="matrix(1,0,0,1,-163.594,-292.99)">
            <rect x="236.527" y="356.334" width="2.523" height="2.524" style="fill:rgb(9,15,55);fill-rule:nonzero;"/>
        </g>
        <g transform="matrix(1,0,0,1,-163.594,-292.99)">
            <rect x="231.48" y="356.334" width="3.836" height="2.524" style="fill:rgb(9,15,55);fill-rule:nonzero;"/>
        </g>
        <g transform="matrix(1,0,0,1,-163.594,-292.99)">
            <rect x="218.863" y="360.068" width="2.524" height="2.524" style="fill:rgb(9,15,55);fill-rule:nonzero;"/>
        </g>
        <g transform="matrix(1,0,0,1,-163.594,-292.99)">
            <rect x="222.598" y="360.068" width="3.836" height="2.524" style="fill:rgb(9,15,55);fill-rule:nonzero;"/>
        </g>
        <g transform="matrix(1,0,0,1,-163.594,-292.99)">
            <rect x="227.645" y="360.068" width="2.523" height="2.524" style="fill:rgb(9,15,55);fill-rule:nonzero;"/>
        </g>
        <g transform="matrix(1,0,0,1,-163.594,-292.99)">
            <rect x="236.527" y="360.068" width="2.523" height="2.524" style="fill:rgb(9,15,55);fill-rule:nonzero;"/>
        </g>
        <g transform="matrix(1,0,0,1,-163.594,-292.99)">
            <rect x="231.48" y="360.068" width="3.836" height="2.524" style="fill:rgb(9,15,55);fill-rule:nonzero;"/>
        </g>
        <g transform="matrix(1,0,0,1,-163.594,-292.99)">
            <rect x="218.863" y="363.904" width="2.524" height="2.523" style="fill:rgb(9,15,55);fill-rule:nonzero;"/>
        </g>
        <g transform="matrix(1,0,0,1,-163.594,-292.99)">
            <rect x="222.598" y="363.904" width="3.836" height="2.523" style="fill:rgb(9,15,55);fill-rule:nonzero;"/>
        </g>
        <g transform="matrix(1,0,0,1,-163.594,-292.99)">
            <rect x="227.645" y="363.904" width="2.523" height="2.523" style="fill:rgb(9,15,55);fill-rule:nonzero;"/>
        </g>
        <g transform="matrix(1,0,0,1,-163.594,-292.99)">
            <rect x="236.527" y="363.904" width="2.523" height="2.523" style="fill:rgb(9,15,55);fill-rule:nonzero;"/>
        </g>
        <g transform="matrix(1,0,0,1,-163.594,-292.99)">
            <rect x="231.48" y="363.904" width="3.836" height="2.523" style="fill:rgb(9,15,55);fill-rule:nonzero;"/>
        </g>
        <g transform="matrix(1,0,0,1,-163.594,-292.99)">
            <rect x="218.863" y="367.639" width="2.524" height="2.523" style="fill:rgb(9,15,55);fill-rule:nonzero;"/>
        </g>
        <g transform="matrix(1,0,0,1,-163.594,-292.99)">
            <rect x="246.621" y="353.811" width="3.835" height="2.523" style="fill:rgb(9,15,55);fill-rule:nonzero;"/>
        </g>
        <g transform="matrix(1,0,0,1,-163.594,-292.99)">
            <rect x="246.621" y="357.545" width="3.835" height="2.523" style="fill:rgb(9,15,55);fill-rule:nonzero;"/>
        </g>
        <g transform="matrix(1,0,0,1,-163.594,-292.99)">
            <rect x="246.621" y="361.381" width="3.835" height="2.523" style="fill:rgb(9,15,55);fill-rule:nonzero;"/>
        </g>
        <g transform="matrix(1,0,0,1,-163.594,-292.99)">
            <rect x="246.621" y="365.115" width="3.835" height="2.524" style="fill:rgb(9,15,55);fill-rule:nonzero;"/>
        </g>
        <g transform="matrix(1,0,0,1,-163.594,-292.99)">
            <rect x="246.621" y="368.95" width="3.835" height="2.524" style="fill:rgb(9,15,55);fill-rule:nonzero;"/>
        </g>
        <g transform="matrix(1,0,0,1,-163.594,-292.99)">
            <rect x="222.598" y="367.639" width="3.836" height="2.523" style="fill:rgb(9,15,55);fill-rule:nonzero;"/>
        </g>
        <g transform="matrix(1,0,0,1,-163.594,-292.99)">
            <rect x="227.645" y="367.639" width="2.523" height="2.523" style="fill:rgb(9,15,55);fill-rule:nonzero;"/>
        </g>
        <g transform="matrix(1,0,0,1,-163.594,-292.99)">
            <rect x="236.527" y="367.639" width="2.523" height="2.523" style="fill:rgb(9,15,55);fill-rule:nonzero;"/>
        </g>
        <g transform="matrix(1,0,0,1,-163.594,-292.99)">
            <rect x="231.48" y="367.639" width="3.836" height="2.523" style="fill:rgb(9,15,55);fill-rule:nonzero;"/>
        </g>
        <g transform="matrix(1,0,0,1,-163.594,-292.99)">
            <rect x="218.863" y="371.474" width="2.524" height="2.523" style="fill:rgb(9,15,55);fill-rule:nonzero;"/>
        </g>
        <g transform="matrix(1,0,0,1,-163.594,-292.99)">
            <rect x="222.598" y="371.474" width="3.836" height="2.523" style="fill:rgb(9,15,55);fill-rule:nonzero;"/>
        </g>
        <g transform="matrix(1,0,0,1,-163.594,-292.99)">
            <rect x="227.645" y="371.474" width="2.523" height="2.523" style="fill:rgb(9,15,55);fill-rule:nonzero;"/>
        </g>
        <g transform="matrix(1,0,0,1,-163.594,-292.99)">
            <rect x="236.527" y="371.474" width="2.523" height="2.523" style="fill:rgb(9,15,55);fill-rule:nonzero;"/>
        </g>
        <g transform="matrix(1,0,0,1,-163.594,-292.99)">
            <rect x="231.48" y="371.474" width="3.836" height="2.523" style="fill:rgb(9,15,55);fill-rule:nonzero;"/>
        </g>
        <g transform="matrix(1,0,0,1,-163.594,-292.99)">
            <rect x="218.863" y="375.208" width="2.524" height="2.524" style="fill:rgb(9,15,55);fill-rule:nonzero;"/>
        </g>
        <g transform="matrix(1,0,0,1,-163.594,-292.99)">
            <rect x="222.598" y="375.208" width="3.836" height="2.524" style="fill:rgb(9,15,55);fill-rule:nonzero;"/>
        </g>
        <g transform="matrix(1,0,0,1,-163.594,-292.99)">
            <rect x="227.645" y="375.208" width="2.523" height="2.524" style="fill:rgb(9,15,55);fill-rule:nonzero;"/>
        </g>
        <g transform="matrix(1,0,0,1,-163.594,-292.99)">
            <rect x="236.527" y="375.208" width="2.523" height="2.524" style="fill:rgb(9,15,55);fill-rule:nonzero;"/>
        </g>
        <g transform="matrix(1,0,0,1,-163.594,-292.99)">
            <rect x="204.935" y="349.975" width="2.523" height="27.757" style="fill:rgb(9,15,55);fill-rule:nonzero;"/>
        </g>
        <g transform="matrix(1,0,0,1,-163.594,-292.99)">
            <rect x="208.77" y="349.975" width="2.523" height="27.757" style="fill:rgb(9,15,55);fill-rule:nonzero;"/>
        </g>
        <g transform="matrix(1,0,0,1,-163.594,-292.99)">
            <rect x="231.48" y="375.208" width="3.836" height="2.524" style="fill:rgb(9,15,55);fill-rule:nonzero;"/>
        </g>
        <g transform="matrix(1,0,0,1,-163.594,-292.99)">
            <path d="M247.832,334.835C248.557,334.835 249.144,335.422 249.144,336.147C249.144,336.871 248.557,337.459 247.832,337.459C247.107,337.459 246.52,336.871 246.52,336.147C246.52,335.422 247.107,334.835 247.832,334.835Z" style="fill:rgb(9,15,55);fill-rule:nonzero;"/>
        </g>
        <g transform="matrix(1,0,0,1,-163.594,-292.99)">
            <path d="M215.028,329.788C215.753,329.788 216.34,330.375 216.34,331.1C216.34,331.825 215.753,332.412 215.028,332.412C214.303,332.412 213.716,331.825 213.716,331.1C213.716,330.375 214.303,329.788 215.028,329.788Z" style="fill:rgb(9,15,55);fill-rule:nonzero;"/>
        </g>
        <g transform="matrix(1,0,0,1,-163.594,-292.99)">
            <path d="M201.2,333.523C201.925,333.523 202.512,334.11 202.512,334.835C202.512,335.56 201.925,336.147 201.2,336.147C200.475,336.147 199.888,335.56 199.888,334.835C199.888,334.11 200.475,333.523 201.2,333.523Z" style="fill:rgb(9,15,55);fill-rule:nonzero;"/>
        </g>
        <g transform="matrix(1,0,0,1,-163.594,-292.99)">
            <path d="M244.097,384.091L244.097,351.287L252.878,351.287L252.878,384.091L244.097,384.091ZM216.34,338.67L241.574,338.67L241.574,384.091L216.34,384.091L216.34,338.67ZM202.411,347.451L213.817,347.451L213.817,384.091L202.411,384.091L202.411,347.451ZM221.387,333.623L235.316,333.623L235.316,336.147L221.387,336.147L221.387,333.623ZM256.713,384.091L255.402,384.091L255.402,349.975C255.402,349.269 254.796,348.663 254.09,348.663L243.996,348.663L243.996,337.358C243.996,336.651 243.391,336.046 242.684,336.046L237.637,336.046L237.637,332.312C237.637,331.605 237.032,330.999 236.325,330.999L229.361,330.999L229.361,328.476C229.361,327.77 228.755,327.164 228.048,327.164C227.342,327.164 226.736,327.77 226.736,328.476L226.736,330.999L219.772,330.999C219.065,330.999 218.46,331.605 218.46,332.312L218.46,336.147L214.625,336.147C213.917,336.147 213.312,336.752 213.312,337.459L213.312,345.029L201.2,345.029C200.494,345.029 199.888,345.635 199.888,346.341L199.888,384.191L198.576,384.191C197.869,384.191 197.264,384.797 197.264,385.504C197.264,386.21 197.869,386.816 198.576,386.816L256.613,386.816C257.32,386.816 257.924,386.21 257.924,385.504C257.924,384.596 257.32,384.091 256.713,384.091Z" style="fill:rgb(9,15,55);fill-rule:nonzero;"/>
        </g>
        <g transform="matrix(1,0,0,1,-163.594,-292.99)">
            <path d="M208.063,331.1C208.366,331.1 208.669,331.403 208.669,331.706C208.669,332.009 208.467,332.312 208.063,332.312C207.66,332.312 207.458,332.009 207.458,331.706C207.458,331.403 207.761,331.1 208.063,331.1ZM208.063,334.835C209.779,334.835 211.192,333.422 211.192,331.706C211.192,329.99 209.779,328.577 208.063,328.577C206.348,328.577 204.935,329.99 204.935,331.706C204.935,333.422 206.348,334.835 208.063,334.835Z" style="fill:rgb(9,15,55);fill-rule:nonzero;"/>
        </g>
        <g transform="matrix(1,0,0,1,-163.594,-292.99)">
            <path d="M251.667,341.193C252.374,341.193 252.979,341.799 252.979,342.506C252.979,343.212 252.374,343.817 251.667,343.817C250.96,343.817 250.355,343.212 250.355,342.506C250.355,341.799 250.96,341.193 251.667,341.193ZM247.832,342.404C247.832,344.524 249.548,346.24 251.667,346.24C253.787,346.24 255.503,344.524 255.503,342.404C255.503,340.285 253.787,338.569 251.667,338.569C249.548,338.569 247.832,340.285 247.832,342.404Z" style="fill:rgb(9,15,55);fill-rule:nonzero;"/>
        </g>
    </g>
</svg>
