<?xml version="1.0" encoding="UTF-8" standalone="no"?>
<!DOCTYPE svg PUBLIC "-//W3C//DTD SVG 1.1//EN" "http://www.w3.org/Graphics/SVG/1.1/DTD/svg11.dtd">
<svg width="100%" height="100%" viewBox="0 0 128 128" version="1.1" xmlns="http://www.w3.org/2000/svg" xmlns:xlink="http://www.w3.org/1999/xlink" xml:space="preserve" xmlns:serif="http://www.serif.com/" style="fill-rule:evenodd;clip-rule:evenodd;stroke-linejoin:round;stroke-miterlimit:2;">
    <g transform="matrix(1.98066,0,0,1.98066,-62.5748,-62.2747)">
        <g transform="matrix(1,0,0,1,-291.529,-421.328)">
            <rect x="351.088" y="459.489" width="5.047" height="2.524" style="fill:rgb(9,15,55);fill-rule:nonzero;"/>
        </g>
        <g transform="matrix(1,0,0,1,-291.529,-421.328)">
            <rect x="357.346" y="459.489" width="2.523" height="2.524" style="fill:rgb(9,15,55);fill-rule:nonzero;"/>
        </g>
        <g transform="matrix(1,0,0,1,-291.529,-421.328)">
            <rect x="367.439" y="508.745" width="2.523" height="2.524" style="fill:rgb(9,15,55);fill-rule:nonzero;"/>
        </g>
        <g transform="matrix(1,0,0,1,-291.529,-421.328)">
            <rect x="371.275" y="508.745" width="2.523" height="2.524" style="fill:rgb(9,15,55);fill-rule:nonzero;"/>
        </g>
        <g transform="matrix(1,0,0,1,-291.529,-421.328)">
            <rect x="375.009" y="508.745" width="2.524" height="2.524" style="fill:rgb(9,15,55);fill-rule:nonzero;"/>
        </g>
        <g transform="matrix(1,0,0,1,-291.529,-421.328)">
            <path d="M343.518,499.862C344.242,499.862 344.83,500.45 344.83,501.175C344.83,501.899 344.242,502.487 343.518,502.487C342.793,502.487 342.206,501.899 342.206,501.175C342.206,500.45 342.793,499.862 343.518,499.862Z" style="fill:rgb(9,15,55);fill-rule:nonzero;"/>
        </g>
        <g transform="matrix(1,0,0,1,-291.529,-421.328)">
            <path d="M356.135,509.956C356.859,509.956 357.447,510.544 357.447,511.269C357.447,511.993 356.859,512.58 356.135,512.58C355.41,512.58 354.822,511.993 354.822,511.269C354.822,510.544 355.41,509.956 356.135,509.956Z" style="fill:rgb(9,15,55);fill-rule:nonzero;"/>
        </g>
        <g transform="matrix(1,0,0,1,-291.529,-421.328)">
            <path d="M367.439,456.966C368.164,456.966 368.751,457.553 368.751,458.277C368.751,459.002 368.164,459.59 367.439,459.59C366.714,459.59 366.127,459.002 366.127,458.277C366.127,457.553 366.714,456.966 367.439,456.966Z" style="fill:rgb(9,15,55);fill-rule:nonzero;"/>
        </g>
        <g transform="matrix(1,0,0,1,-291.529,-421.328)">
            <path d="M340.995,456.966C341.719,456.966 342.307,457.553 342.307,458.277C342.307,459.002 341.719,459.59 340.995,459.59C340.27,459.59 339.682,459.002 339.682,458.277C339.682,457.553 340.27,456.966 340.995,456.966Z" style="fill:rgb(9,15,55);fill-rule:nonzero;"/>
        </g>
        <g transform="matrix(1,0,0,1,-291.529,-421.328)">
            <path d="M339.682,499.862C340.407,499.862 340.995,500.45 340.995,501.175C340.995,501.899 340.407,502.487 339.682,502.487C338.958,502.487 338.37,501.899 338.37,501.175C338.37,500.45 338.958,499.862 339.682,499.862Z" style="fill:rgb(9,15,55);fill-rule:nonzero;"/>
        </g>
        <g transform="matrix(1,0,0,1,-291.529,-421.328)">
            <path d="M339.682,496.027C340.407,496.027 340.995,496.614 340.995,497.34C340.995,498.065 340.407,498.651 339.682,498.651C338.958,498.651 338.37,498.065 338.37,497.34C338.37,496.614 338.958,496.027 339.682,496.027Z" style="fill:rgb(9,15,55);fill-rule:nonzero;"/>
        </g>
        <g transform="matrix(1,0,0,1,-291.529,-421.328)">
            <path d="M359.869,477.152C360.594,477.152 361.181,477.74 361.181,478.465C361.181,479.19 360.594,479.776 359.869,479.776C359.145,479.776 358.557,479.19 358.557,478.465C358.557,477.74 359.145,477.152 359.869,477.152Z" style="fill:rgb(9,15,55);fill-rule:nonzero;"/>
        </g>
        <g transform="matrix(1,0,0,1,-291.529,-421.328)">
            <path d="M366.228,472.005L366.228,477.152L363.705,477.152C362.998,477.152 362.393,477.758 362.393,478.465C362.393,479.171 362.998,479.776 363.705,479.776L367.54,479.776C368.247,479.776 368.852,479.171 368.852,478.465L368.852,472.106L376.422,472.106L376.422,480.988L372.587,480.988L372.587,477.152C372.587,476.446 371.981,475.84 371.275,475.84C370.568,475.84 369.962,476.446 369.962,477.152L369.962,482.199C369.962,482.905 370.568,483.512 371.275,483.512L376.321,483.512L376.321,489.77L373.798,489.77L373.798,487.246C373.798,486.539 373.192,485.934 372.486,485.934C371.779,485.934 371.174,486.539 371.174,487.246L371.174,489.77L364.916,489.77L364.916,485.934L366.228,485.934C366.935,485.934 367.54,485.328 367.54,484.621C367.54,483.915 366.935,483.31 366.228,483.31L363.705,483.31C362.998,483.31 362.393,483.915 362.393,484.621L362.393,489.668L359.869,489.668L359.869,482.099C359.869,481.392 359.264,480.786 358.557,480.786L352.198,480.786C351.492,480.786 350.886,481.392 350.886,482.099C350.886,482.805 351.492,483.41 352.198,483.41L357.245,483.41L357.245,489.77L350.886,489.77L350.886,488.457L352.198,488.457C352.905,488.457 353.51,487.852 353.51,487.145C353.51,486.439 352.905,485.833 352.198,485.833L349.776,485.833C349.069,485.833 348.463,486.439 348.463,487.145L348.463,489.77L347.151,489.77L347.151,479.676L356.034,479.676C356.74,479.676 357.346,479.07 357.346,478.363C357.346,477.657 356.74,477.052 356.034,477.052L347.151,477.052L347.151,472.005L366.228,472.005ZM377.533,492.293C378.239,492.293 378.845,491.687 378.845,490.981L378.845,470.794C378.845,470.087 378.239,469.482 377.533,469.482L346.041,469.482C345.334,469.482 344.729,470.087 344.729,470.794L344.729,490.981C344.729,491.687 345.334,492.293 346.041,492.293L377.533,492.293Z" style="fill:rgb(9,15,55);fill-rule:nonzero;"/>
        </g>
        <g transform="matrix(1,0,0,1,-291.529,-421.328)">
            <path d="M333.424,504.909C330.598,504.909 328.479,502.689 328.377,499.661C328.479,498.248 329.589,497.138 330.901,497.138C332.213,497.138 333.323,498.449 333.424,499.862C333.424,500.569 334.03,501.074 334.736,501.074C335.443,501.074 335.948,500.469 335.948,499.862L335.948,465.848L338.471,465.848L338.471,493.605C338.471,494.312 339.077,494.917 339.783,494.917C340.49,494.917 341.095,494.312 341.095,493.605L341.095,465.848L382.781,465.848L382.781,499.964L347.454,499.964C346.748,499.964 346.142,500.569 346.142,501.275C346.142,501.983 346.748,502.588 347.454,502.588L382.781,502.588L382.781,505.111L333.424,505.111L333.424,504.909ZM330.901,458.277C332.314,458.277 333.424,459.388 333.424,460.902L333.424,495.422C331.809,494.412 329.892,494.412 328.377,495.422L328.377,461.003C328.377,459.489 329.488,458.277 330.901,458.277ZM385.103,464.535C385.103,463.829 384.497,463.224 383.791,463.224L335.948,463.224L335.948,460.801C335.948,457.874 333.727,455.653 330.901,455.653C328.075,455.653 325.854,457.975 325.854,460.902L325.854,499.661C325.955,504.001 329.185,507.332 333.424,507.332L383.892,507.332C384.598,507.332 385.204,506.727 385.204,506.02C385.103,502.588 385.103,466.15 385.103,464.535Z" style="fill:rgb(9,15,55);fill-rule:nonzero;"/>
        </g>
        <g transform="matrix(1,0,0,1,-291.529,-421.328)">
            <path d="M375.615,458.277C375.918,458.277 376.221,458.58 376.221,458.883C376.221,459.187 376.019,459.489 375.615,459.489C375.211,459.489 375.009,459.187 375.009,458.883C375.009,458.58 375.312,458.277 375.615,458.277ZM375.615,462.013C377.331,462.013 378.744,460.6 378.744,458.883C378.744,457.167 377.331,455.754 375.615,455.754C373.899,455.754 372.486,457.167 372.486,458.883C372.486,460.6 373.899,462.013 375.615,462.013Z" style="fill:rgb(9,15,55);fill-rule:nonzero;"/>
        </g>
        <g transform="matrix(1,0,0,1,-291.529,-421.328)">
            <path d="M339.077,512.48C338.774,512.48 338.471,512.177 338.471,511.874C338.471,511.571 338.774,511.269 339.077,511.269C339.379,511.269 339.682,511.571 339.682,511.874C339.682,512.177 339.379,512.48 339.077,512.48ZM339.077,508.745C337.361,508.745 335.948,510.158 335.948,511.874C335.948,513.59 337.361,515.003 339.077,515.003C340.792,515.003 342.206,513.59 342.206,511.874C342.206,510.158 340.792,508.745 339.077,508.745Z" style="fill:rgb(9,15,55);fill-rule:nonzero;"/>
        </g>
    </g>
</svg>
