<?xml version="1.0" encoding="UTF-8" standalone="no"?>
<!DOCTYPE svg PUBLIC "-//W3C//DTD SVG 1.1//EN" "http://www.w3.org/Graphics/SVG/1.1/DTD/svg11.dtd">
<svg width="100%" height="100%" viewBox="0 0 128 128" version="1.1" xmlns="http://www.w3.org/2000/svg" xmlns:xlink="http://www.w3.org/1999/xlink" xml:space="preserve" xmlns:serif="http://www.serif.com/" style="fill-rule:evenodd;clip-rule:evenodd;stroke-linejoin:round;stroke-miterlimit:2;">
    <g transform="matrix(1.89498,0,0,1.89498,-849.839,-372.525)">
        <path d="M508.545,254.592L486.845,254.592L508.445,235.616L508.445,254.592L508.545,254.592ZM460.602,250.554C457.776,250.554 455.656,248.334 455.555,245.306C455.656,243.893 456.766,242.782 458.079,242.782C459.391,242.782 460.501,244.094 460.602,245.507C460.602,246.214 461.208,246.719 461.914,246.719C462.621,246.719 463.125,246.113 463.125,245.507L463.125,211.493L465.648,211.493L465.648,239.25C465.648,239.956 466.254,240.562 466.96,240.562C467.667,240.562 468.273,239.956 468.273,239.25L468.273,211.493L476.953,211.493L476.953,212.805L471.907,212.805C471.2,212.805 470.594,213.41 470.594,214.117L470.594,234.304C470.594,235.01 471.2,235.616 471.907,235.616L500.976,235.616C501.682,235.616 502.288,235.01 502.288,234.304L502.288,211.493L504.811,211.493L504.811,235.717L487.652,250.554L460.602,250.554ZM458.079,203.922C459.492,203.922 460.602,205.033 460.602,206.547L460.602,241.066C458.987,240.057 457.069,240.057 455.555,241.066L455.555,206.648C455.555,205.134 456.666,203.922 458.079,203.922ZM473.118,226.633L475.742,226.633L475.742,224.109L473.219,224.109L473.219,222.797L475.742,222.797L475.742,220.274L473.219,220.274L473.219,218.962L475.742,218.962L475.742,216.439L473.219,216.439L473.219,215.227L476.953,215.227L476.953,232.891L473.118,232.891L473.118,226.633ZM479.477,206.446L492.093,206.446L492.093,232.992L479.477,232.992L479.477,206.446ZM483.312,202.61L488.359,202.61L488.359,203.922L483.312,203.922L483.312,202.61ZM499.664,210.181L499.664,232.891L494.617,232.891L494.617,210.181L499.664,210.181ZM510.261,231.78C509.858,231.579 509.252,231.68 508.95,231.983L507.234,233.396L507.234,210.181C507.234,209.474 506.628,208.868 505.921,208.868L502.187,208.868C502.187,208.162 501.582,207.556 500.875,207.556L494.516,207.556L494.516,205.134C494.516,204.427 493.911,203.822 493.204,203.822L490.68,203.822L490.68,201.298C490.68,200.592 490.075,199.986 489.369,199.986L482,199.986C481.293,199.986 480.688,200.592 480.688,201.298L480.688,203.822L478.165,203.822C477.458,203.822 476.852,204.427 476.852,205.134L476.852,208.969L463.125,208.969L463.125,206.547C463.125,203.62 460.905,201.399 458.079,201.399C455.252,201.399 453.032,203.721 453.032,206.648L453.032,245.407C453.133,249.747 456.363,253.078 460.602,253.078L484.827,253.078L482.707,254.895C482.303,255.197 482.202,255.803 482.404,256.308C482.605,256.813 483.009,257.115 483.615,257.115L509.858,257.115C510.565,257.115 511.17,256.509 511.17,255.803L511.17,232.891C511.069,232.386 510.766,231.983 510.261,231.78Z" style="fill:rgb(9,15,55);fill-rule:nonzero;"/>
    </g>
    <g transform="matrix(1.89498,0,0,1.89498,-849.839,-372.525)">
        <rect x="471.907" y="254.39" width="5.046" height="2.523" style="fill:rgb(9,15,55);fill-rule:nonzero;"/>
    </g>
    <g transform="matrix(1.89498,0,0,1.89498,-849.839,-372.525)">
        <rect x="478.265" y="254.39" width="2.524" height="2.523" style="fill:rgb(9,15,55);fill-rule:nonzero;"/>
    </g>
    <g transform="matrix(1.89498,0,0,1.89498,-849.839,-372.525)">
        <rect x="498.453" y="201.399" width="5.047" height="2.523" style="fill:rgb(9,15,55);fill-rule:nonzero;"/>
    </g>
    <g transform="matrix(1.89498,0,0,1.89498,-849.839,-372.525)">
        <rect x="504.71" y="201.399" width="2.524" height="2.523" style="fill:rgb(9,15,55);fill-rule:nonzero;"/>
    </g>
    <g transform="matrix(1.89498,0,0,1.89498,-849.839,-372.525)">
        <rect x="480.789" y="207.657" width="2.523" height="2.524" style="fill:rgb(9,15,55);fill-rule:nonzero;"/>
    </g>
    <g transform="matrix(1.89498,0,0,1.89498,-849.839,-372.525)">
        <rect x="484.523" y="207.657" width="2.523" height="2.524" style="fill:rgb(9,15,55);fill-rule:nonzero;"/>
    </g>
    <g transform="matrix(1.89498,0,0,1.89498,-849.839,-372.525)">
        <rect x="488.359" y="207.657" width="2.523" height="2.524" style="fill:rgb(9,15,55);fill-rule:nonzero;"/>
    </g>
    <g transform="matrix(1.89498,0,0,1.89498,-849.839,-372.525)">
        <rect x="480.789" y="211.493" width="2.523" height="5.047" style="fill:rgb(9,15,55);fill-rule:nonzero;"/>
    </g>
    <g transform="matrix(1.89498,0,0,1.89498,-849.839,-372.525)">
        <rect x="484.523" y="211.493" width="2.523" height="5.047" style="fill:rgb(9,15,55);fill-rule:nonzero;"/>
    </g>
    <g transform="matrix(1.89498,0,0,1.89498,-849.839,-372.525)">
        <rect x="488.359" y="211.493" width="2.523" height="5.047" style="fill:rgb(9,15,55);fill-rule:nonzero;"/>
    </g>
    <g transform="matrix(1.89498,0,0,1.89498,-849.839,-372.525)">
        <rect x="480.789" y="217.751" width="2.523" height="2.523" style="fill:rgb(9,15,55);fill-rule:nonzero;"/>
    </g>
    <g transform="matrix(1.89498,0,0,1.89498,-849.839,-372.525)">
        <rect x="484.523" y="217.751" width="2.523" height="2.523" style="fill:rgb(9,15,55);fill-rule:nonzero;"/>
    </g>
    <g transform="matrix(1.89498,0,0,1.89498,-849.839,-372.525)">
        <rect x="495.929" y="211.493" width="2.524" height="2.523" style="fill:rgb(9,15,55);fill-rule:nonzero;"/>
    </g>
    <g transform="matrix(1.89498,0,0,1.89498,-849.839,-372.525)">
        <rect x="495.929" y="215.227" width="2.524" height="2.524" style="fill:rgb(9,15,55);fill-rule:nonzero;"/>
    </g>
    <g transform="matrix(1.89498,0,0,1.89498,-849.839,-372.525)">
        <rect x="495.929" y="219.063" width="2.524" height="2.523" style="fill:rgb(9,15,55);fill-rule:nonzero;"/>
    </g>
    <g transform="matrix(1.89498,0,0,1.89498,-849.839,-372.525)">
        <rect x="495.929" y="222.797" width="2.524" height="2.524" style="fill:rgb(9,15,55);fill-rule:nonzero;"/>
    </g>
    <g transform="matrix(1.89498,0,0,1.89498,-849.839,-372.525)">
        <rect x="495.929" y="226.633" width="2.524" height="2.523" style="fill:rgb(9,15,55);fill-rule:nonzero;"/>
    </g>
    <g transform="matrix(1.89498,0,0,1.89498,-849.839,-372.525)">
        <rect x="488.359" y="217.751" width="2.523" height="2.523" style="fill:rgb(9,15,55);fill-rule:nonzero;"/>
    </g>
    <g transform="matrix(1.89498,0,0,1.89498,-849.839,-372.525)">
        <rect x="480.789" y="221.586" width="2.523" height="5.047" style="fill:rgb(9,15,55);fill-rule:nonzero;"/>
    </g>
    <g transform="matrix(1.89498,0,0,1.89498,-849.839,-372.525)">
        <rect x="484.523" y="221.586" width="2.523" height="5.047" style="fill:rgb(9,15,55);fill-rule:nonzero;"/>
    </g>
    <g transform="matrix(1.89498,0,0,1.89498,-849.839,-372.525)">
        <rect x="488.359" y="221.586" width="2.523" height="5.047" style="fill:rgb(9,15,55);fill-rule:nonzero;"/>
    </g>
    <g transform="matrix(1.89498,0,0,1.89498,-849.839,-372.525)">
        <path d="M466.86,245.507C467.584,245.507 468.172,246.095 468.172,246.82C468.172,247.545 467.584,248.132 466.86,248.132C466.135,248.132 465.548,247.545 465.548,246.82C465.548,246.095 466.135,245.507 466.86,245.507Z" style="fill:rgb(9,15,55);fill-rule:nonzero;"/>
    </g>
    <g transform="matrix(1.89498,0,0,1.89498,-849.839,-372.525)">
        <path d="M466.86,241.672C467.584,241.672 468.172,242.26 468.172,242.984C468.172,243.709 467.584,244.296 466.86,244.296C466.135,244.296 465.548,243.709 465.548,242.984C465.548,242.26 466.135,241.672 466.86,241.672Z" style="fill:rgb(9,15,55);fill-rule:nonzero;"/>
    </g>
    <g transform="matrix(1.89498,0,0,1.89498,-849.839,-372.525)">
        <path d="M473.219,202.61C473.943,202.61 474.531,203.198 474.531,203.922C474.531,204.647 473.943,205.235 473.219,205.235C472.494,205.235 471.907,204.647 471.907,203.922C471.907,203.198 472.494,202.61 473.219,202.61Z" style="fill:rgb(9,15,55);fill-rule:nonzero;"/>
    </g>
    <g transform="matrix(1.89498,0,0,1.89498,-849.839,-372.525)">
        <path d="M466.86,205.134C467.584,205.134 468.172,205.721 468.172,206.446C468.172,207.17 467.584,207.758 466.86,207.758C466.135,207.758 465.548,207.17 465.548,206.446C465.548,205.721 466.135,205.134 466.86,205.134Z" style="fill:rgb(9,15,55);fill-rule:nonzero;"/>
    </g>
    <g transform="matrix(1.89498,0,0,1.89498,-849.839,-372.525)">
        <path d="M508.545,206.345C509.27,206.345 509.858,206.933 509.858,207.657C509.858,208.382 509.27,208.969 508.545,208.969C507.821,208.969 507.234,208.382 507.234,207.657C507.234,206.933 507.821,206.345 508.545,206.345Z" style="fill:rgb(9,15,55);fill-rule:nonzero;"/>
    </g>
    <g transform="matrix(1.89498,0,0,1.89498,-849.839,-372.525)">
        <path d="M466.254,258.125C465.951,258.125 465.648,257.822 465.648,257.519C465.648,257.216 465.951,256.913 466.254,256.913C466.557,256.913 466.86,257.216 466.86,257.519C466.86,257.822 466.557,258.125 466.254,258.125ZM466.254,254.39C464.538,254.39 463.125,255.803 463.125,257.519C463.125,259.235 464.538,260.648 466.254,260.648C467.97,260.648 469.383,259.235 469.383,257.519C469.383,255.803 467.97,254.39 466.254,254.39Z" style="fill:rgb(9,15,55);fill-rule:nonzero;"/>
    </g>
    <g transform="matrix(1.89498,0,0,1.89498,-849.839,-372.525)">
        <path d="M504.105,245.104L504.105,249.848L498.654,249.848L504.105,245.104ZM494.112,251.665C494.314,252.17 494.717,252.472 495.324,252.472L505.417,252.472C506.124,252.472 506.729,251.867 506.729,251.16L506.729,242.278C506.729,241.773 506.426,241.369 506.022,241.168C505.619,240.965 505.013,241.066 504.71,241.369L494.617,250.252C494.011,250.554 493.911,251.16 494.112,251.665Z" style="fill:rgb(9,15,55);fill-rule:nonzero;"/>
    </g>
    <g transform="matrix(1.89498,0,0,1.89498,-849.839,-372.525)">
        <path d="M485.835,245.507L470.695,245.507C469.989,245.507 469.383,246.113 469.383,246.82C469.383,247.526 469.989,248.132 470.695,248.132L485.835,248.132C486.542,248.132 487.148,247.526 487.148,246.82C487.046,246.113 486.441,245.507 485.835,245.507Z" style="fill:rgb(9,15,55);fill-rule:nonzero;"/>
    </g>
</svg>
