<?xml version="1.0" encoding="UTF-8" standalone="no"?>
<!DOCTYPE svg PUBLIC "-//W3C//DTD SVG 1.1//EN" "http://www.w3.org/Graphics/SVG/1.1/DTD/svg11.dtd">
<svg width="100%" height="100%" viewBox="0 0 36 36" version="1.1" xmlns="http://www.w3.org/2000/svg" xmlns:xlink="http://www.w3.org/1999/xlink" xml:space="preserve" xmlns:serif="http://www.serif.com/" style="fill-rule:evenodd;clip-rule:evenodd;stroke-linejoin:round;stroke-miterlimit:2;">
    <g transform="matrix(0.045748,0,0,0.045748,31.4735,25.2286)">
        <path d="M0,-302.906L-374.342,-258.81L-374.342,-379.088L0,-423.183L0,-302.906ZM0,-88.966L-195.571,-65.929L-195.98,-66.02C-198.862,-66.656 -201.738,-66.188 -204.115,-64.923L-374.342,-44.872L-374.342,-165.149L0,-209.243L0,-88.966ZM-51.012,-12.34L-374.342,25.746L-374.342,-23.909L-196.811,-44.821L-51.012,-12.34ZM0,122.892L-374.342,166.986L-374.342,46.708L0,2.614L0,122.892ZM-384.898,-398.806L-533.083,-431.821L-199.212,-471.148L-51.025,-438.135L-384.898,-398.806ZM-384.886,-184.869L-533.086,-217.885L-199.207,-257.214L-51.005,-224.198L-384.886,-184.869ZM22.322,-293.739L22.322,-434.979C22.322,-435.058 22.311,-435.135 22.309,-435.214C22.303,-435.455 22.292,-435.694 22.268,-435.931C22.255,-436.059 22.237,-436.187 22.22,-436.314C22.188,-436.535 22.151,-436.755 22.105,-436.972C22.076,-437.113 22.043,-437.251 22.008,-437.39C21.957,-437.587 21.9,-437.781 21.837,-437.973C21.788,-438.127 21.737,-438.28 21.68,-438.43C21.616,-438.599 21.544,-438.763 21.471,-438.928C21.398,-439.094 21.325,-439.26 21.243,-439.421C21.171,-439.561 21.092,-439.697 21.015,-439.833C20.915,-440.009 20.817,-440.185 20.707,-440.355C20.635,-440.465 20.555,-440.569 20.479,-440.677C20.349,-440.862 20.22,-441.049 20.077,-441.227C20.033,-441.281 19.983,-441.33 19.938,-441.384C19.584,-441.804 19.195,-442.201 18.77,-442.571C18.715,-442.619 18.666,-442.671 18.61,-442.718C18.586,-442.737 18.566,-442.76 18.542,-442.78C18.394,-442.901 18.234,-443.006 18.08,-443.12C17.96,-443.208 17.844,-443.301 17.721,-443.385C17.54,-443.507 17.352,-443.616 17.165,-443.728C17.034,-443.805 16.906,-443.886 16.771,-443.959C16.571,-444.067 16.366,-444.164 16.159,-444.26C16.031,-444.32 15.904,-444.382 15.771,-444.437C15.545,-444.533 15.315,-444.617 15.083,-444.698C14.964,-444.74 14.847,-444.782 14.726,-444.82C14.474,-444.899 14.219,-444.967 13.962,-445.029C13.893,-445.045 13.827,-445.069 13.757,-445.084L-195.552,-491.715C-195.58,-491.722 -195.61,-491.727 -195.638,-491.734L-195.98,-491.81C-196.007,-491.817 -196.034,-491.819 -196.062,-491.824C-196.378,-491.893 -196.698,-491.949 -197.022,-491.991C-197.09,-492.001 -197.157,-492.008 -197.224,-492.015C-197.508,-492.048 -197.793,-492.071 -198.082,-492.082C-198.197,-492.087 -198.31,-492.089 -198.424,-492.091C-198.659,-492.093 -198.895,-492.091 -199.132,-492.079C-199.297,-492.072 -199.46,-492.059 -199.624,-492.045C-199.741,-492.034 -199.858,-492.033 -199.976,-492.02L-596.651,-445.295C-596.899,-445.265 -597.139,-445.218 -597.381,-445.174C-597.481,-445.156 -597.583,-445.145 -597.683,-445.124C-598.498,-444.955 -599.275,-444.704 -600.006,-444.383C-600.009,-444.382 -600.012,-444.38 -600.015,-444.379C-600.376,-444.22 -600.724,-444.042 -601.061,-443.85C-601.118,-443.818 -601.172,-443.782 -601.229,-443.749C-601.513,-443.58 -601.788,-443.402 -602.054,-443.211C-602.088,-443.186 -602.126,-443.167 -602.16,-443.142C-602.198,-443.114 -602.231,-443.08 -602.27,-443.051C-602.519,-442.863 -602.759,-442.664 -602.989,-442.457C-603.052,-442.4 -603.117,-442.345 -603.178,-442.287C-603.428,-442.052 -603.664,-441.806 -603.889,-441.551C-603.915,-441.52 -603.944,-441.492 -603.97,-441.461C-604.735,-440.569 -605.337,-439.56 -605.754,-438.474C-605.767,-438.442 -605.777,-438.409 -605.79,-438.377C-605.911,-438.051 -606.015,-437.718 -606.101,-437.378C-606.112,-437.338 -606.122,-437.297 -606.131,-437.256C-606.213,-436.921 -606.275,-436.58 -606.321,-436.234C-606.326,-436.195 -606.332,-436.155 -606.337,-436.115C-606.379,-435.758 -606.402,-435.395 -606.403,-435.029C-606.403,-435.012 -606.406,-434.996 -606.406,-434.979L-606.406,-434.918C-606.406,-434.836 -606.409,-434.756 -606.406,-434.674L-606.406,-293.901C-606.439,-291.997 -605.911,-290.082 -604.815,-288.38C-603.149,-285.792 -600.418,-284.077 -597.39,-283.524L-443.967,-249.344L-596.644,-231.36C-596.719,-231.351 -596.79,-231.334 -596.864,-231.324C-596.938,-231.314 -597.012,-231.312 -597.087,-231.3C-597.149,-231.29 -597.205,-231.267 -597.267,-231.257C-597.84,-231.159 -598.398,-231.03 -598.933,-230.856C-598.99,-230.838 -599.044,-230.814 -599.101,-230.794C-599.623,-230.615 -600.125,-230.403 -600.604,-230.158C-600.659,-230.13 -600.717,-230.106 -600.771,-230.077C-601.25,-229.823 -601.698,-229.531 -602.126,-229.218C-602.217,-229.151 -602.308,-229.086 -602.397,-229.017C-602.798,-228.704 -603.174,-228.368 -603.522,-228.008C-603.609,-227.918 -603.69,-227.826 -603.773,-227.735C-604.11,-227.362 -604.426,-226.973 -604.704,-226.56C-604.758,-226.48 -604.802,-226.396 -604.854,-226.315C-605.102,-225.923 -605.323,-225.516 -605.514,-225.095C-605.552,-225.013 -605.596,-224.935 -605.631,-224.851C-605.828,-224.388 -605.978,-223.907 -606.101,-223.417C-606.13,-223.302 -606.162,-223.188 -606.187,-223.072C-606.291,-222.584 -606.355,-222.086 -606.383,-221.58C-606.386,-221.52 -606.404,-221.465 -606.406,-221.405C-606.415,-221.161 -606.415,-220.919 -606.406,-220.678L-606.406,132.057C-606.406,136.869 -602.864,141.052 -597.841,142.172L-388.099,188.903C-387.954,188.935 -387.807,188.948 -387.661,188.975C-387.558,188.993 -387.457,189.01 -387.354,189.026C-386.738,189.122 -386.119,189.187 -385.503,189.187C-385.389,189.187 -385.277,189.164 -385.163,189.16C-384.814,189.151 -384.464,189.141 -384.115,189.099L12.561,142.375C18.139,141.717 22.322,137.295 22.322,132.057L22.322,-9.181C22.322,-9.26 22.311,-9.336 22.309,-9.414C22.303,-9.659 22.292,-9.904 22.267,-10.146C22.255,-10.264 22.239,-10.382 22.223,-10.5C22.19,-10.736 22.15,-10.969 22.101,-11.201C22.075,-11.324 22.046,-11.445 22.016,-11.566C21.959,-11.786 21.896,-12.004 21.824,-12.22C21.782,-12.348 21.74,-12.475 21.693,-12.601C21.617,-12.804 21.531,-13.003 21.442,-13.2C21.383,-13.331 21.326,-13.462 21.262,-13.59C21.166,-13.78 21.06,-13.964 20.952,-14.148C20.879,-14.274 20.81,-14.4 20.731,-14.522C20.608,-14.714 20.472,-14.898 20.336,-15.082C20.259,-15.186 20.188,-15.294 20.107,-15.395C19.891,-15.666 19.66,-15.928 19.416,-16.179C19.408,-16.187 19.401,-16.196 19.393,-16.204C19.132,-16.47 18.854,-16.722 18.564,-16.963C18.556,-16.969 18.55,-16.976 18.542,-16.982C18.496,-17.02 18.445,-17.052 18.398,-17.089C18.159,-17.279 17.914,-17.463 17.656,-17.634C17.577,-17.687 17.495,-17.733 17.414,-17.784C17.178,-17.933 16.937,-18.078 16.687,-18.211C16.587,-18.263 16.485,-18.31 16.384,-18.36C16.15,-18.475 15.914,-18.587 15.668,-18.687C15.546,-18.738 15.421,-18.782 15.296,-18.828C15.07,-18.912 14.841,-18.992 14.606,-19.063C14.461,-19.107 14.314,-19.145 14.167,-19.183C14.03,-19.219 13.897,-19.264 13.757,-19.295L-134.02,-52.217L12.561,-69.483C18.139,-70.141 22.322,-74.562 22.322,-79.8L22.322,-221.039C22.322,-221.117 22.311,-221.194 22.309,-221.271C22.303,-221.517 22.291,-221.761 22.267,-222.005C22.255,-222.122 22.239,-222.239 22.223,-222.356C22.19,-222.593 22.15,-222.828 22.101,-223.06C22.075,-223.182 22.046,-223.302 22.016,-223.422C21.96,-223.644 21.896,-223.863 21.824,-224.08C21.782,-224.207 21.74,-224.332 21.693,-224.457C21.617,-224.662 21.531,-224.863 21.441,-225.062C21.383,-225.19 21.327,-225.319 21.263,-225.446C21.166,-225.638 21.059,-225.824 20.95,-226.01C20.878,-226.134 20.81,-226.259 20.732,-226.379C20.608,-226.573 20.471,-226.759 20.333,-226.944C20.257,-227.047 20.187,-227.153 20.107,-227.252C19.891,-227.524 19.66,-227.786 19.415,-228.037C19.407,-228.045 19.401,-228.053 19.393,-228.061C19.132,-228.327 18.855,-228.579 18.564,-228.819C18.557,-228.826 18.55,-228.833 18.542,-228.84C18.494,-228.88 18.44,-228.912 18.391,-228.951C18.155,-229.139 17.913,-229.321 17.659,-229.49C17.575,-229.546 17.488,-229.594 17.403,-229.648C17.171,-229.794 16.936,-229.936 16.691,-230.066C16.587,-230.121 16.48,-230.17 16.375,-230.221C16.145,-230.335 15.912,-230.444 15.671,-230.543C15.547,-230.594 15.42,-230.639 15.294,-230.686C15.068,-230.77 14.84,-230.85 14.605,-230.921C14.462,-230.964 14.317,-231.001 14.172,-231.039C14.033,-231.075 13.899,-231.12 13.757,-231.152L-140.136,-265.437L12.561,-283.424C18.139,-284.081 22.322,-288.501 22.322,-293.739" style="fill:rgb(9,15,55);fill-rule:nonzero;"/>
    </g>
</svg>
