<?xml version="1.0" encoding="UTF-8" standalone="no"?>
<!DOCTYPE svg PUBLIC "-//W3C//DTD SVG 1.1//EN" "http://www.w3.org/Graphics/SVG/1.1/DTD/svg11.dtd">
<svg width="100%" height="100%" viewBox="0 0 140 39" version="1.1" xmlns="http://www.w3.org/2000/svg" xmlns:xlink="http://www.w3.org/1999/xlink" xml:space="preserve" xmlns:serif="http://www.serif.com/" style="fill-rule:evenodd;clip-rule:evenodd;stroke-linejoin:round;stroke-miterlimit:2;">
    <g transform="matrix(1.66192,0,0,1.71556,-81.55,-9.57836)">
        <g transform="matrix(0.0756264,0,0,0.0732614,-131.273,-103.315)">
            <path d="M2767.3,1596.47L2811.12,1596.47L2811.12,1749.26L2767.3,1749.26L2767.3,1596.47ZM2789.21,1575.71C2781.52,1575.71 2775.27,1573.26 2770.47,1568.36C2765.66,1563.46 2763.26,1557.65 2763.26,1550.92C2763.26,1543.81 2765.66,1537.8 2770.47,1532.9C2775.27,1528 2781.52,1525.55 2789.21,1525.55C2796.51,1525.55 2802.66,1528 2807.66,1532.9C2812.65,1537.8 2815.15,1543.81 2815.15,1550.92C2815.15,1557.65 2812.65,1563.46 2807.66,1568.36C2802.66,1573.26 2796.51,1575.71 2789.21,1575.71" style="fill:rgb(9,15,55);fill-rule:nonzero;"/>
        </g>
        <g transform="matrix(0.0756264,0,0,0.0732614,83.0657,13.4335)">
            <path d="M0,155.678L0,2.882L43.821,2.882L43.821,24.793L45.262,24.793C46.992,21.72 49.537,18.262 52.902,14.415C56.263,10.573 60.781,7.208 66.452,4.324C72.119,1.441 79.375,0 88.217,0C100.132,0 109.84,2.739 117.335,8.217C124.831,13.694 130.309,20.713 133.769,29.262C137.228,37.816 138.957,46.803 138.957,56.218L138.957,155.678L95.137,155.678L95.137,63.713C95.137,56.41 93.164,49.972 89.227,44.397C85.286,38.825 78.992,36.036 70.344,36.036C63.808,36.036 58.618,37.576 54.776,40.649C50.929,43.726 48.146,47.668 46.416,52.47C44.686,57.276 43.821,62.371 43.821,67.748L43.821,155.678L0,155.678Z" style="fill:rgb(9,15,55);fill-rule:nonzero;"/>
        </g>
        <g transform="matrix(0.0756264,0,0,0.0732614,100.224,10.8779)">
            <path d="M0,193.443C-11.919,193.443 -21.433,191.666 -28.542,188.11C-35.654,184.555 -41.037,180.037 -44.686,174.561C-48.339,169.082 -50.74,163.271 -51.893,157.12C-53.046,150.97 -53.623,145.299 -53.623,140.11L-53.623,72.65L-79.569,72.65L-79.569,37.765L-53.623,37.765L-53.623,0L-9.802,0L-9.802,37.765L22.775,37.765L22.775,72.65L-9.802,72.65L-9.802,138.957C-9.802,145.299 -8.122,150.2 -4.757,153.66C-1.396,157.12 4.225,158.849 12.107,158.849C15.567,158.849 20.181,158.273 25.946,157.12L25.946,190.849C15.567,192.58 6.918,193.443 0,193.443" style="fill:rgb(9,15,55);fill-rule:nonzero;"/>
        </g>
        <g transform="matrix(0.0756264,0,0,0.0732614,106.307,20.34)">
            <path d="M0,-29.983L62.559,-29.983C61.982,-40.551 58.812,-48.434 53.046,-53.622C47.28,-58.811 40.167,-61.405 31.712,-61.405C23.253,-61.405 16.045,-58.667 10.091,-53.191C4.131,-47.712 0.766,-39.973 0,-29.983M34.019,64.288C20.563,64.288 8.938,62.029 -0.865,57.515C-10.667,53.001 -18.74,46.947 -25.082,39.352C-31.424,31.762 -36.181,23.257 -39.352,13.838C-42.523,4.423 -44.109,-5.283 -44.109,-15.28C-44.109,-24.887 -42.622,-34.351 -39.641,-43.676C-36.663,-52.996 -32.05,-61.501 -25.802,-69.191C-19.559,-76.875 -11.582,-82.98 -1.874,-87.498C7.829,-92.011 19.316,-94.271 32.577,-94.271C46.604,-94.271 59.051,-91.194 69.911,-85.047C80.768,-78.893 89.271,-69.811 95.425,-57.802C101.573,-45.789 104.65,-31.23 104.65,-14.127L104.65,-3.46L0,-3.46C0.577,5.767 3.793,13.743 9.658,20.47C15.519,27.199 23.64,30.559 34.019,30.559C39.974,30.559 44.829,29.65 48.577,27.821C52.326,25.995 55.253,23.883 57.371,21.477C59.483,19.078 61.308,15.956 62.848,12.109L103.209,12.109C101.479,19.222 99.268,25.371 96.578,30.559C93.884,35.748 89.993,40.937 84.902,46.128C79.808,51.317 73.127,55.64 64.866,59.1C56.6,62.56 46.316,64.288 34.019,64.288" style="fill:rgb(9,15,55);fill-rule:nonzero;"/>
        </g>
        <g transform="matrix(0.0756264,0,0,0.0732614,120.37,13.4335)">
            <path d="M0,158.56C-12.684,158.56 -23.162,156.831 -31.423,153.372C-39.689,149.912 -46.27,145.637 -51.171,140.543C-56.072,135.452 -59.726,130.358 -62.126,125.263C-64.532,120.173 -66.406,114.164 -67.748,107.244L-27.099,107.244C-25.946,111.091 -24.36,114.263 -22.342,116.758C-20.324,119.259 -17.396,121.471 -13.549,123.39C-9.707,125.313 -4.518,126.272 2.019,126.272C10.091,126.272 15.613,124.641 18.596,121.371C21.573,118.106 23.064,114.839 23.064,111.569C23.064,104.649 17.393,100.039 6.054,97.732L-14.703,93.694C-23.545,91.965 -31.856,89.42 -39.639,86.055C-47.423,82.695 -53.671,77.984 -58.379,71.93C-63.09,65.875 -65.442,58.046 -65.442,48.432C-65.442,39.208 -63.041,30.947 -58.235,23.64C-53.432,16.339 -46.559,10.573 -37.622,6.342C-28.685,2.117 -17.973,0 -5.478,0C6.244,0 16,1.585 23.785,4.757C31.569,7.927 37.767,11.87 42.38,16.576C46.992,21.289 50.452,25.995 52.759,30.704C55.064,35.416 56.889,40.937 58.235,47.279L19.027,47.279C16.722,42.09 13.789,38.199 10.235,35.604C6.677,33.01 1.249,31.713 -6.054,31.713C-13.549,31.713 -18.738,33.203 -21.622,36.18C-24.505,39.164 -25.946,42.285 -25.946,45.55C-25.946,49.397 -24.266,52.279 -20.901,54.199C-17.541,56.122 -13.167,57.659 -7.783,58.812L12.109,62.848C26.712,65.732 38.727,70.777 48.146,77.984C57.56,85.189 62.271,95.618 62.271,109.263C62.271,118.489 59.867,126.848 55.064,134.345C50.258,141.841 43.245,147.751 34.019,152.074C24.794,156.4 13.451,158.56 0,158.56" style="fill:rgb(9,15,55);fill-rule:nonzero;"/>
        </g>
        <g transform="matrix(0.0756264,0,0,0.0732614,131.293,10.8779)">
            <path d="M0,193.443C-11.919,193.443 -21.433,191.666 -28.541,188.11C-35.653,184.555 -41.037,180.037 -44.685,174.561C-48.339,169.082 -50.739,163.271 -51.893,157.12C-53.046,150.97 -53.623,145.299 -53.623,140.11L-53.623,72.65L-79.569,72.65L-79.569,37.765L-53.623,37.765L-53.623,0L-9.802,0L-9.802,37.765L22.775,37.765L22.775,72.65L-9.802,72.65L-9.802,138.957C-9.802,145.299 -8.122,150.2 -4.757,153.66C-1.396,157.12 4.225,158.849 12.107,158.849C15.567,158.849 20.181,158.273 25.946,157.12L25.946,190.849C15.567,192.58 6.919,193.443 0,193.443" style="fill:rgb(9,15,55);fill-rule:nonzero;"/>
        </g>
    </g>
    <g transform="matrix(0.0778733,0,0,0.0778732,34.2622,27.803)">
        <path d="M0,-219.769L-271.599,-187.776L-271.599,-275.041L0,-307.034L0,-219.769ZM0,-64.547L-141.894,-47.833L-142.191,-47.9C-144.282,-48.361 -146.368,-48.021 -148.093,-47.103L-271.599,-32.556L-271.599,-119.821L0,-151.813L0,-64.547ZM-37.011,-8.953L-271.599,18.68L-271.599,-17.347L-142.793,-32.519L-37.011,-8.953ZM0,89.163L-271.599,121.155L-271.599,33.889L0,1.897L0,89.163ZM-279.257,-289.348L-386.771,-313.301L-144.536,-341.834L-37.021,-317.882L-279.257,-289.348ZM-279.249,-134.128L-386.773,-158.083L-144.532,-186.618L-37.006,-162.663L-279.249,-134.128ZM16.195,-213.118L16.195,-315.592C16.195,-315.649 16.187,-315.706 16.186,-315.763C16.181,-315.937 16.173,-316.111 16.156,-316.283C16.146,-316.376 16.134,-316.469 16.121,-316.561C16.099,-316.722 16.071,-316.881 16.038,-317.039C16.017,-317.141 15.993,-317.241 15.967,-317.342C15.931,-317.484 15.889,-317.625 15.843,-317.765C15.808,-317.876 15.771,-317.987 15.729,-318.097C15.683,-318.219 15.631,-318.338 15.578,-318.458C15.525,-318.578 15.472,-318.698 15.412,-318.815C15.36,-318.917 15.303,-319.015 15.247,-319.114C15.174,-319.242 15.103,-319.37 15.023,-319.493C14.971,-319.573 14.913,-319.648 14.858,-319.726C14.764,-319.861 14.67,-319.996 14.566,-320.125C14.535,-320.165 14.499,-320.201 14.466,-320.239C14.209,-320.544 13.926,-320.832 13.618,-321.101C13.579,-321.135 13.542,-321.173 13.502,-321.207C13.485,-321.221 13.47,-321.238 13.453,-321.252C13.345,-321.34 13.229,-321.416 13.117,-321.499C13.031,-321.563 12.947,-321.63 12.857,-321.691C12.726,-321.779 12.589,-321.859 12.454,-321.94C12.359,-321.997 12.266,-322.055 12.168,-322.107C12.023,-322.186 11.874,-322.256 11.724,-322.326C11.63,-322.37 11.539,-322.415 11.443,-322.455C11.278,-322.524 11.111,-322.585 10.942,-322.644C10.857,-322.674 10.771,-322.705 10.684,-322.732C10.501,-322.79 10.316,-322.839 10.129,-322.884C10.08,-322.896 10.032,-322.913 9.981,-322.924L-141.88,-356.756C-141.9,-356.762 -141.922,-356.765 -141.942,-356.77L-142.191,-356.826C-142.21,-356.83 -142.23,-356.832 -142.25,-356.836C-142.479,-356.886 -142.711,-356.926 -142.947,-356.957C-142.996,-356.963 -143.044,-356.969 -143.093,-356.974C-143.299,-356.998 -143.506,-357.015 -143.716,-357.023C-143.799,-357.026 -143.881,-357.028 -143.964,-357.029C-144.135,-357.031 -144.305,-357.029 -144.478,-357.021C-144.597,-357.016 -144.716,-357.006 -144.834,-356.996C-144.919,-356.988 -145.004,-356.988 -145.09,-356.977L-432.892,-323.077C-433.072,-323.056 -433.246,-323.02 -433.421,-322.989C-433.494,-322.976 -433.568,-322.968 -433.64,-322.953C-434.232,-322.83 -434.795,-322.648 -435.326,-322.415C-435.329,-322.415 -435.331,-322.413 -435.333,-322.412C-435.595,-322.297 -435.847,-322.168 -436.091,-322.029C-436.133,-322.005 -436.172,-321.979 -436.213,-321.956C-436.419,-321.833 -436.619,-321.704 -436.812,-321.565C-436.837,-321.547 -436.864,-321.533 -436.889,-321.515C-436.917,-321.494 -436.94,-321.47 -436.968,-321.449C-437.149,-321.312 -437.323,-321.168 -437.491,-321.018C-437.536,-320.977 -437.583,-320.936 -437.627,-320.894C-437.809,-320.724 -437.98,-320.546 -438.143,-320.36C-438.162,-320.338 -438.184,-320.318 -438.202,-320.295C-438.757,-319.648 -439.194,-318.916 -439.497,-318.128C-439.506,-318.105 -439.513,-318.082 -439.522,-318.058C-439.61,-317.821 -439.686,-317.58 -439.749,-317.333C-439.756,-317.304 -439.763,-317.274 -439.771,-317.245C-439.829,-317.001 -439.875,-316.754 -439.908,-316.503C-439.911,-316.475 -439.916,-316.446 -439.919,-316.417C-439.95,-316.157 -439.966,-315.894 -439.967,-315.629C-439.967,-315.617 -439.97,-315.604 -439.97,-315.592L-439.97,-315.548C-439.969,-315.489 -439.972,-315.43 -439.97,-315.371L-439.97,-213.235C-439.993,-211.854 -439.61,-210.464 -438.815,-209.229C-437.606,-207.352 -435.625,-206.108 -433.428,-205.706L-322.114,-180.908L-432.887,-167.86C-432.941,-167.853 -432.993,-167.841 -433.046,-167.833C-433.1,-167.826 -433.154,-167.825 -433.208,-167.816C-433.253,-167.809 -433.294,-167.792 -433.339,-167.785C-433.754,-167.714 -434.16,-167.62 -434.548,-167.494C-434.589,-167.48 -434.628,-167.463 -434.669,-167.449C-435.048,-167.319 -435.412,-167.165 -435.76,-166.987C-435.8,-166.967 -435.842,-166.95 -435.881,-166.929C-436.229,-166.745 -436.554,-166.533 -436.864,-166.306C-436.931,-166.257 -436.997,-166.21 -437.061,-166.16C-437.352,-165.933 -437.624,-165.688 -437.877,-165.427C-437.94,-165.362 -437.999,-165.296 -438.059,-165.229C-438.304,-164.958 -438.533,-164.677 -438.735,-164.377C-438.774,-164.319 -438.806,-164.258 -438.843,-164.199C-439.023,-163.915 -439.184,-163.62 -439.323,-163.314C-439.35,-163.255 -439.382,-163.198 -439.408,-163.137C-439.55,-162.801 -439.659,-162.452 -439.749,-162.097C-439.77,-162.013 -439.792,-161.931 -439.81,-161.846C-439.886,-161.492 -439.933,-161.131 -439.953,-160.764C-439.955,-160.721 -439.968,-160.68 -439.97,-160.637C-439.976,-160.46 -439.976,-160.285 -439.97,-160.11L-439.97,95.813C-439.97,99.304 -437.399,102.339 -433.755,103.151L-281.58,137.056C-281.475,137.08 -281.368,137.089 -281.262,137.108C-281.187,137.122 -281.114,137.134 -281.039,137.146C-280.592,137.215 -280.144,137.262 -279.696,137.262C-279.614,137.262 -279.533,137.246 -279.45,137.243C-279.197,137.236 -278.943,137.229 -278.689,137.199L9.113,103.298C13.16,102.821 16.195,99.613 16.195,95.813L16.195,-6.661C16.195,-6.718 16.187,-6.773 16.186,-6.83C16.182,-7.008 16.173,-7.185 16.155,-7.361C16.147,-7.447 16.135,-7.532 16.123,-7.617C16.1,-7.789 16.071,-7.958 16.035,-8.126C16.016,-8.215 15.995,-8.303 15.973,-8.391C15.932,-8.551 15.886,-8.709 15.834,-8.866C15.804,-8.958 15.773,-9.051 15.739,-9.142C15.684,-9.29 15.622,-9.434 15.557,-9.577C15.514,-9.671 15.473,-9.767 15.426,-9.859C15.356,-9.997 15.28,-10.131 15.202,-10.265C15.148,-10.355 15.098,-10.447 15.041,-10.536C14.952,-10.675 14.853,-10.809 14.754,-10.942C14.698,-11.018 14.647,-11.096 14.588,-11.169C14.431,-11.366 14.264,-11.556 14.086,-11.738C14.081,-11.744 14.076,-11.75 14.07,-11.756C13.881,-11.949 13.68,-12.132 13.469,-12.307C13.463,-12.311 13.458,-12.316 13.453,-12.321C13.419,-12.348 13.382,-12.371 13.348,-12.398C13.175,-12.536 12.997,-12.669 12.81,-12.794C12.753,-12.832 12.693,-12.866 12.634,-12.902C12.463,-13.011 12.289,-13.116 12.107,-13.212C12.035,-13.25 11.96,-13.284 11.887,-13.32C11.717,-13.404 11.546,-13.485 11.368,-13.558C11.279,-13.594 11.188,-13.626 11.098,-13.66C10.934,-13.721 10.768,-13.779 10.597,-13.831C10.492,-13.862 10.385,-13.89 10.279,-13.918C10.179,-13.944 10.083,-13.977 9.981,-13.999L-97.237,-37.885L9.113,-50.412C13.16,-50.89 16.195,-54.097 16.195,-57.897L16.195,-160.372C16.195,-160.428 16.187,-160.483 16.186,-160.54C16.182,-160.718 16.173,-160.895 16.155,-161.072C16.146,-161.157 16.135,-161.242 16.123,-161.327C16.1,-161.499 16.071,-161.669 16.035,-161.838C16.016,-161.926 15.996,-162.013 15.973,-162.101C15.933,-162.262 15.886,-162.42 15.834,-162.578C15.804,-162.669 15.773,-162.761 15.739,-162.852C15.684,-163 15.621,-163.145 15.556,-163.29C15.514,-163.383 15.473,-163.477 15.427,-163.568C15.356,-163.708 15.279,-163.843 15.2,-163.978C15.147,-164.068 15.098,-164.158 15.042,-164.246C14.952,-164.386 14.852,-164.521 14.752,-164.656C14.697,-164.73 14.646,-164.807 14.588,-164.879C14.431,-165.076 14.264,-165.266 14.086,-165.449C14.081,-165.454 14.076,-165.46 14.07,-165.466C13.881,-165.659 13.68,-165.842 13.469,-166.016C13.463,-166.021 13.458,-166.026 13.453,-166.031C13.418,-166.06 13.379,-166.083 13.343,-166.112C13.172,-166.248 12.996,-166.38 12.812,-166.502C12.751,-166.543 12.688,-166.579 12.626,-166.618C12.458,-166.724 12.288,-166.826 12.11,-166.92C12.034,-166.96 11.957,-166.996 11.88,-167.034C11.713,-167.116 11.544,-167.195 11.37,-167.267C11.28,-167.304 11.188,-167.336 11.097,-167.37C10.932,-167.431 10.767,-167.489 10.596,-167.54C10.492,-167.572 10.387,-167.599 10.282,-167.626C10.181,-167.653 10.084,-167.686 9.981,-167.708L-101.674,-192.583L9.113,-205.634C13.16,-206.11 16.195,-209.317 16.195,-213.118" style="fill:rgb(9,15,55);fill-rule:nonzero;"/>
    </g>
</svg>
