<?xml version="1.0" encoding="UTF-8" standalone="no"?>
<!DOCTYPE svg PUBLIC "-//W3C//DTD SVG 1.1//EN" "http://www.w3.org/Graphics/SVG/1.1/DTD/svg11.dtd">
<svg width="100%" height="100%" viewBox="0 0 159 64" version="1.1" xmlns="http://www.w3.org/2000/svg" xmlns:xlink="http://www.w3.org/1999/xlink" xml:space="preserve" xmlns:serif="http://www.serif.com/" style="fill-rule:evenodd;clip-rule:evenodd;stroke-linejoin:round;stroke-miterlimit:2;">
    <g transform="matrix(0.127685,0,0,0.127685,56.1781,45.5873)">
        <path d="M0,-219.769L-271.598,-187.776L-271.598,-275.041L0,-307.034L0,-219.769ZM0,-64.547L-141.894,-47.833L-142.19,-47.9C-144.282,-48.361 -146.368,-48.021 -148.092,-47.103L-271.598,-32.556L-271.598,-119.821L0,-151.813L0,-64.547ZM-37.01,-8.953L-271.598,18.68L-271.598,-17.347L-142.793,-32.519L-37.01,-8.953ZM0,89.163L-271.598,121.155L-271.598,33.889L0,1.897L0,89.163ZM-279.257,-289.348L-386.771,-313.301L-144.535,-341.834L-37.02,-317.882L-279.257,-289.348ZM-279.249,-134.128L-386.772,-158.083L-144.532,-186.618L-37.005,-162.663L-279.249,-134.128ZM16.196,-213.118L16.196,-315.592C16.196,-315.649 16.187,-315.706 16.186,-315.763C16.182,-315.937 16.173,-316.111 16.156,-316.283C16.147,-316.376 16.134,-316.469 16.122,-316.561C16.099,-316.722 16.072,-316.881 16.039,-317.039C16.017,-317.141 15.994,-317.241 15.968,-317.342C15.931,-317.484 15.889,-317.625 15.844,-317.765C15.808,-317.876 15.771,-317.987 15.729,-318.097C15.683,-318.219 15.631,-318.338 15.579,-318.458C15.525,-318.578 15.472,-318.698 15.413,-318.815C15.361,-318.917 15.303,-319.015 15.247,-319.114C15.175,-319.242 15.104,-319.37 15.023,-319.493C14.972,-319.573 14.914,-319.648 14.859,-319.726C14.764,-319.861 14.671,-319.996 14.567,-320.125C14.535,-320.165 14.499,-320.201 14.466,-320.239C14.209,-320.544 13.927,-320.832 13.619,-321.101C13.579,-321.135 13.543,-321.173 13.502,-321.207C13.485,-321.221 13.471,-321.238 13.454,-321.252C13.346,-321.34 13.229,-321.416 13.118,-321.499C13.031,-321.563 12.947,-321.63 12.857,-321.691C12.726,-321.779 12.59,-321.859 12.454,-321.94C12.359,-321.997 12.266,-322.055 12.168,-322.107C12.023,-322.186 11.874,-322.256 11.725,-322.326C11.631,-322.37 11.539,-322.415 11.443,-322.455C11.279,-322.524 11.112,-322.585 10.943,-322.644C10.857,-322.674 10.772,-322.705 10.685,-322.732C10.502,-322.79 10.317,-322.839 10.13,-322.884C10.08,-322.896 10.032,-322.913 9.982,-322.924L-141.879,-356.756C-141.9,-356.762 -141.921,-356.765 -141.942,-356.77L-142.19,-356.826C-142.21,-356.83 -142.23,-356.832 -142.25,-356.836C-142.479,-356.886 -142.711,-356.926 -142.946,-356.957C-142.995,-356.963 -143.044,-356.969 -143.093,-356.974C-143.299,-356.998 -143.506,-357.015 -143.715,-357.023C-143.798,-357.026 -143.881,-357.028 -143.964,-357.029C-144.134,-357.031 -144.305,-357.029 -144.477,-357.021C-144.597,-357.016 -144.715,-357.006 -144.834,-356.996C-144.919,-356.988 -145.004,-356.988 -145.089,-356.977L-432.892,-323.077C-433.071,-323.056 -433.246,-323.02 -433.421,-322.989C-433.494,-322.976 -433.567,-322.968 -433.64,-322.953C-434.232,-322.83 -434.795,-322.648 -435.326,-322.415C-435.328,-322.415 -435.33,-322.413 -435.333,-322.412C-435.594,-322.297 -435.846,-322.168 -436.091,-322.029C-436.132,-322.005 -436.172,-321.979 -436.213,-321.956C-436.419,-321.833 -436.619,-321.704 -436.812,-321.565C-436.836,-321.547 -436.864,-321.533 -436.888,-321.515C-436.917,-321.494 -436.94,-321.47 -436.968,-321.449C-437.149,-321.312 -437.323,-321.168 -437.49,-321.018C-437.536,-320.977 -437.583,-320.936 -437.627,-320.894C-437.808,-320.724 -437.98,-320.546 -438.143,-320.36C-438.162,-320.338 -438.183,-320.318 -438.202,-320.295C-438.756,-319.648 -439.193,-318.916 -439.496,-318.128C-439.505,-318.105 -439.513,-318.082 -439.522,-318.058C-439.61,-317.821 -439.686,-317.58 -439.748,-317.333C-439.756,-317.304 -439.763,-317.274 -439.77,-317.245C-439.829,-317.001 -439.875,-316.754 -439.907,-316.503C-439.911,-316.475 -439.916,-316.446 -439.919,-316.417C-439.949,-316.157 -439.966,-315.894 -439.967,-315.629C-439.967,-315.617 -439.969,-315.604 -439.969,-315.592L-439.969,-315.548C-439.969,-315.489 -439.971,-315.43 -439.969,-315.371L-439.969,-213.235C-439.993,-211.854 -439.61,-210.464 -438.814,-209.229C-437.606,-207.352 -435.625,-206.108 -433.428,-205.706L-322.114,-180.908L-432.887,-167.86C-432.941,-167.853 -432.992,-167.841 -433.046,-167.833C-433.1,-167.826 -433.154,-167.825 -433.208,-167.816C-433.253,-167.809 -433.293,-167.792 -433.338,-167.785C-433.754,-167.714 -434.159,-167.62 -434.547,-167.494C-434.589,-167.48 -434.628,-167.463 -434.669,-167.449C-435.048,-167.319 -435.412,-167.165 -435.76,-166.987C-435.8,-166.967 -435.841,-166.95 -435.881,-166.929C-436.228,-166.745 -436.553,-166.533 -436.864,-166.306C-436.93,-166.257 -436.996,-166.21 -437.061,-166.16C-437.352,-165.933 -437.624,-165.688 -437.877,-165.427C-437.94,-165.362 -437.999,-165.296 -438.059,-165.229C-438.303,-164.958 -438.533,-164.677 -438.734,-164.377C-438.773,-164.319 -438.806,-164.258 -438.843,-164.199C-439.023,-163.915 -439.183,-163.62 -439.322,-163.314C-439.35,-163.255 -439.381,-163.198 -439.407,-163.137C-439.549,-162.801 -439.658,-162.452 -439.748,-162.097C-439.769,-162.013 -439.792,-161.931 -439.81,-161.846C-439.885,-161.492 -439.933,-161.131 -439.953,-160.764C-439.955,-160.721 -439.968,-160.68 -439.969,-160.637C-439.976,-160.46 -439.976,-160.285 -439.969,-160.11L-439.969,95.813C-439.969,99.304 -437.399,102.339 -433.755,103.151L-281.58,137.056C-281.474,137.08 -281.367,137.089 -281.262,137.108C-281.187,137.122 -281.113,137.134 -281.039,137.146C-280.592,137.215 -280.143,137.262 -279.696,137.262C-279.613,137.262 -279.532,137.246 -279.45,137.243C-279.196,137.236 -278.942,137.229 -278.688,137.199L9.113,103.298C13.161,102.821 16.196,99.613 16.196,95.813L16.196,-6.661C16.196,-6.718 16.187,-6.773 16.186,-6.83C16.182,-7.008 16.173,-7.185 16.156,-7.361C16.147,-7.447 16.135,-7.532 16.124,-7.617C16.1,-7.789 16.071,-7.958 16.035,-8.126C16.016,-8.215 15.996,-8.303 15.974,-8.391C15.933,-8.551 15.886,-8.709 15.834,-8.866C15.804,-8.958 15.773,-9.051 15.739,-9.142C15.684,-9.29 15.622,-9.434 15.557,-9.577C15.515,-9.671 15.473,-9.767 15.427,-9.859C15.357,-9.997 15.28,-10.131 15.202,-10.265C15.149,-10.355 15.099,-10.447 15.042,-10.536C14.952,-10.675 14.854,-10.809 14.755,-10.942C14.699,-11.018 14.647,-11.096 14.588,-11.169C14.432,-11.366 14.264,-11.556 14.087,-11.738C14.081,-11.744 14.076,-11.75 14.071,-11.756C13.881,-11.949 13.68,-12.132 13.469,-12.307C13.463,-12.311 13.459,-12.316 13.454,-12.321C13.42,-12.348 13.382,-12.371 13.349,-12.398C13.175,-12.536 12.997,-12.669 12.811,-12.794C12.753,-12.832 12.693,-12.866 12.635,-12.902C12.463,-13.011 12.289,-13.116 12.107,-13.212C12.035,-13.25 11.961,-13.284 11.888,-13.32C11.718,-13.404 11.546,-13.485 11.369,-13.558C11.279,-13.594 11.189,-13.626 11.099,-13.66C10.934,-13.721 10.768,-13.779 10.598,-13.831C10.492,-13.862 10.386,-13.89 10.279,-13.918C10.179,-13.944 10.083,-13.977 9.982,-13.999L-97.236,-37.885L9.113,-50.412C13.161,-50.89 16.196,-54.097 16.196,-57.897L16.196,-160.372C16.196,-160.428 16.187,-160.483 16.186,-160.54C16.182,-160.718 16.173,-160.895 16.156,-161.072C16.147,-161.157 16.135,-161.242 16.124,-161.327C16.1,-161.499 16.071,-161.669 16.035,-161.838C16.016,-161.926 15.996,-162.013 15.974,-162.101C15.933,-162.262 15.886,-162.42 15.834,-162.578C15.804,-162.669 15.773,-162.761 15.74,-162.852C15.684,-163 15.622,-163.145 15.556,-163.29C15.514,-163.383 15.474,-163.477 15.427,-163.568C15.357,-163.708 15.279,-163.843 15.2,-163.978C15.148,-164.068 15.098,-164.158 15.042,-164.246C14.952,-164.386 14.853,-164.521 14.752,-164.656C14.697,-164.73 14.647,-164.807 14.589,-164.879C14.432,-165.076 14.264,-165.266 14.086,-165.449C14.081,-165.454 14.076,-165.46 14.071,-165.466C13.881,-165.659 13.68,-165.842 13.47,-166.016C13.464,-166.021 13.459,-166.026 13.454,-166.031C13.418,-166.06 13.379,-166.083 13.344,-166.112C13.172,-166.248 12.997,-166.38 12.813,-166.502C12.752,-166.543 12.688,-166.579 12.626,-166.618C12.458,-166.724 12.288,-166.826 12.11,-166.92C12.035,-166.96 11.958,-166.996 11.881,-167.034C11.713,-167.116 11.545,-167.195 11.37,-167.267C11.28,-167.304 11.188,-167.336 11.097,-167.37C10.933,-167.431 10.767,-167.489 10.597,-167.54C10.493,-167.572 10.388,-167.599 10.283,-167.626C10.182,-167.653 10.084,-167.686 9.982,-167.708L-101.673,-192.583L9.113,-205.634C13.161,-206.11 16.196,-209.317 16.196,-213.118" style="fill:white;fill-rule:nonzero;"/>
    </g>
    <g transform="matrix(0.127685,0,0,0.127685,-486.426,-71.6678)">
        <path d="M4363.37,648.099L4398.52,648.099L4398.52,770.643L4363.37,770.643L4363.37,648.099ZM4380.95,637.926C4374.78,637.926 4369.77,635.96 4365.92,632.03C4362.06,628.099 4360.14,623.439 4360.14,618.042C4360.14,612.34 4362.06,607.521 4365.92,603.59C4369.77,599.66 4374.78,597.694 4380.95,597.694C4386.8,597.694 4391.73,599.66 4395.74,603.59C4399.75,607.521 4401.75,612.34 4401.75,618.042C4401.75,623.439 4399.75,628.099 4395.74,632.03C4391.73,635.96 4386.8,637.926 4380.95,637.926" style="fill:white;fill-rule:nonzero;"/>
    </g>
    <g transform="matrix(0.127685,0,0,0.127685,77.5597,10.7895)">
        <path d="M0,124.856L0,2.312L35.146,2.312L35.146,19.884L36.3,19.884C37.689,17.42 39.729,14.646 42.428,11.561C45.123,8.479 48.747,5.78 53.295,3.468C57.84,1.155 63.66,0 70.752,0C80.309,0 88.093,2.196 94.104,6.589C100.117,10.982 104.51,16.611 107.283,23.468C110.059,30.329 111.447,37.536 111.447,45.086L111.447,124.856L76.301,124.856L76.301,51.098C76.301,45.242 74.718,40.079 71.562,35.607C68.401,31.138 63.353,28.902 56.417,28.902C51.175,28.902 47.013,30.137 43.931,32.601C40.845,35.069 38.614,38.23 37.226,42.081C35.839,45.936 35.146,50.022 35.146,54.335L35.146,124.856L0,124.856Z" style="fill:white;fill-rule:nonzero;"/>
    </g>
    <g transform="matrix(0.127685,0,0,0.127685,100.794,7.2172)">
        <path d="M0,155.145C-9.561,155.145 -17.19,153.718 -22.891,150.868C-28.595,148.017 -32.913,144.394 -35.839,140C-38.769,135.607 -40.694,130.947 -41.619,126.012C-42.544,121.082 -43.006,116.533 -43.006,112.371L-43.006,58.266L-63.816,58.266L-63.816,30.289L-43.006,30.289L-43.006,0L-7.862,0L-7.862,30.289L18.265,30.289L18.265,58.266L-7.862,58.266L-7.862,111.446C-7.862,116.533 -6.514,120.463 -3.816,123.238C-1.121,126.012 3.388,127.399 9.71,127.399C12.485,127.399 16.185,126.937 20.809,126.012L20.809,153.065C12.485,154.452 5.548,155.145 0,155.145" style="fill:white;fill-rule:nonzero;"/>
    </g>
    <g transform="matrix(0.127685,0,0,0.127685,109.031,20.4433)">
        <path d="M0,-24.046L50.174,-24.046C49.712,-32.522 47.169,-38.844 42.544,-43.005C37.92,-47.167 32.214,-49.248 25.434,-49.248C18.65,-49.248 12.868,-47.052 8.093,-42.659C3.314,-38.266 0.615,-32.059 0,-24.046M27.284,51.561C16.493,51.561 7.168,49.748 -0.693,46.128C-8.555,42.509 -15.029,37.652 -20.115,31.561C-25.202,25.474 -29.017,18.653 -31.56,11.099C-34.103,3.548 -35.375,-4.237 -35.375,-12.254C-35.375,-19.96 -34.184,-27.55 -31.792,-35.029C-29.404,-42.504 -25.704,-49.325 -20.693,-55.491C-15.687,-61.655 -9.289,-66.55 -1.502,-70.173C6.279,-73.793 15.492,-75.607 26.127,-75.607C37.378,-75.607 47.36,-73.139 56.07,-68.209C64.776,-63.273 71.598,-55.99 76.533,-46.358C81.464,-36.723 83.931,-25.047 83.931,-11.329L83.931,-2.774L0,-2.774C0.463,4.624 3.042,11.023 7.746,16.417C12.447,21.814 18.96,24.509 27.284,24.509C32.06,24.509 35.955,23.779 38.96,22.313C41.966,20.85 44.314,19.155 46.012,17.226C47.707,15.301 49.17,12.796 50.406,9.711L82.776,9.711C81.388,15.416 79.614,20.347 77.458,24.509C75.297,28.671 72.175,32.832 68.093,36.994C64.007,41.158 58.649,44.624 52.024,47.399C45.395,50.174 37.147,51.561 27.284,51.561" style="fill:white;fill-rule:nonzero;"/>
    </g>
    <g transform="matrix(0.127685,0,0,0.127685,128.073,10.7894)">
        <path d="M0,127.168C-10.174,127.168 -18.576,125.781 -25.202,123.006C-31.832,120.231 -37.11,116.803 -41.04,112.717C-44.972,108.635 -47.901,104.549 -49.827,100.463C-51.755,96.381 -53.258,91.562 -54.336,86.012L-21.734,86.012C-20.809,89.098 -19.538,91.641 -17.919,93.643C-16.3,95.647 -13.953,97.421 -10.867,98.96C-7.785,100.503 -3.623,101.272 1.618,101.272C8.093,101.272 12.522,99.964 14.914,97.342C17.302,94.723 18.497,92.104 18.497,89.481C18.497,83.932 13.949,80.231 4.856,78.382L-11.792,75.145C-18.883,73.758 -25.55,71.716 -31.792,69.018C-38.035,66.323 -43.046,62.543 -46.82,57.689C-50.601,52.833 -52.486,46.554 -52.486,38.844C-52.486,31.446 -50.561,24.82 -46.706,18.96C-42.854,13.104 -37.342,8.479 -30.173,5.087C-23.006,1.698 -14.414,0 -4.394,0C5.008,0 12.833,1.272 19.076,3.815C25.318,6.358 30.29,9.52 33.989,13.295C37.688,17.074 40.462,20.849 42.312,24.625C44.162,28.403 45.626,32.833 46.706,37.919L15.26,37.919C13.41,33.757 11.058,30.636 8.209,28.555C5.354,26.474 1,25.434 -4.855,25.434C-10.867,25.434 -15.029,26.63 -17.341,29.017C-19.654,31.409 -20.809,33.913 -20.809,36.532C-20.809,39.618 -19.462,41.929 -16.763,43.468C-14.068,45.011 -10.56,46.243 -6.242,47.168L9.711,50.405C21.423,52.717 31.059,56.764 38.614,62.543C46.164,68.325 49.942,76.688 49.942,87.631C49.942,95.029 48.014,101.735 44.162,107.746C40.308,113.758 34.682,118.499 27.284,121.965C19.885,125.434 10.788,127.168 0,127.168" style="fill:white;fill-rule:nonzero;"/>
    </g>
    <g transform="matrix(0.127685,0,0,0.127685,142.863,7.2172)">
        <path d="M0,155.145C-9.561,155.145 -17.19,153.718 -22.891,150.868C-28.595,148.017 -32.913,144.394 -35.839,140C-38.768,135.607 -40.694,130.947 -41.619,126.012C-42.544,121.082 -43.006,116.533 -43.006,112.371L-43.006,58.266L-63.816,58.266L-63.816,30.289L-43.006,30.289L-43.006,0L-7.862,0L-7.862,30.289L18.265,30.289L18.265,58.266L-7.862,58.266L-7.862,111.446C-7.862,116.533 -6.514,120.463 -3.816,123.238C-1.121,126.012 3.388,127.399 9.71,127.399C12.485,127.399 16.185,126.937 20.809,126.012L20.809,153.065C12.485,154.452 5.548,155.145 0,155.145" style="fill:white;fill-rule:nonzero;"/>
    </g>
    <g transform="matrix(0.127685,0,0,0.127685,-486.426,-29.7018)">
        <path d="M4416.88,500.231L4429.05,500.231L4429.05,568.138L4416.88,568.138L4416.88,500.231ZM4422.9,487.291C4420.6,487.291 4418.69,486.522 4417.2,484.983C4415.71,483.446 4414.96,481.61 4414.96,479.475C4414.96,477.253 4415.71,475.374 4417.2,473.837C4418.69,472.299 4420.6,471.53 4422.9,471.53C4425.12,471.53 4427,472.299 4428.54,473.837C4430.08,475.374 4430.85,477.253 4430.85,479.475C4430.85,481.61 4430.08,483.446 4428.54,484.983C4427,486.522 4425.12,487.291 4422.9,487.291" style="fill:white;fill-rule:nonzero;"/>
    </g>
    <g transform="matrix(0.127685,0,0,0.127685,80.7985,34.0066)">
        <path d="M0,69.188L0,1.281L12.172,1.281L12.172,11.146L12.939,11.146C13.537,10.122 14.542,8.712 15.951,6.919C17.361,5.124 19.39,3.523 22.037,2.114C24.684,0.704 28.016,0 32.031,0C36.984,0 41.212,1.133 44.716,3.394C48.217,5.658 50.885,8.712 52.724,12.557C54.56,16.399 55.478,20.714 55.478,25.496L55.478,69.188L43.306,69.188L43.306,26.265C43.306,21.738 42.045,17.982 39.527,14.99C37.006,12.001 33.355,10.506 28.571,10.506C24.729,10.506 21.609,11.467 19.219,13.388C16.827,15.311 15.054,17.831 13.902,20.948C12.748,24.068 12.172,27.376 12.172,30.878L12.172,69.188L0,69.188Z" style="fill:white;fill-rule:nonzero;"/>
    </g>
    <g transform="matrix(0.127685,0,0,0.127685,92.7087,31.9942)">
        <path d="M0,86.23C-7.005,86.23 -12.28,84.437 -15.823,80.849C-19.369,77.261 -21.141,72.221 -21.141,65.73L-21.141,27.036L-33.313,27.036L-33.313,17.042L-21.141,17.042L-21.141,0L-8.969,0L-8.969,17.042L7.559,17.042L7.559,27.036L-8.969,27.036L-8.969,65.73C-8.969,69.147 -8.029,71.645 -6.15,73.225C-4.271,74.806 -1.537,75.595 2.051,75.595C3.929,75.595 6.576,75.339 9.994,74.827L9.994,85.206C6.064,85.887 2.733,86.23 0,86.23" style="fill:white;fill-rule:nonzero;"/>
    </g>
    <g transform="matrix(0.127685,0,0,0.127685,96.3078,39.2418)">
        <path d="M0,-11.531L37.03,-11.531C36.857,-15.972 35.917,-19.581 34.21,-22.358C32.501,-25.133 30.323,-27.205 27.676,-28.573C25.027,-29.937 22.209,-30.622 19.22,-30.622C13.838,-30.622 9.438,-28.892 6.022,-25.434C2.606,-21.975 0.597,-17.339 0,-11.531M19.732,29.469C14.178,29.469 9.373,28.464 5.318,26.458C1.259,24.452 -2.071,21.74 -4.675,18.322C-7.283,14.906 -9.225,11.126 -10.506,6.983C-11.787,2.84 -12.427,-1.409 -12.427,-5.765C-12.427,-10.036 -11.81,-14.264 -10.57,-18.45C-9.333,-22.634 -7.41,-26.436 -4.805,-29.854C-2.2,-33.269 1.09,-35.982 5.062,-37.989C9.033,-39.995 13.752,-41 19.22,-41C25.027,-41 30.152,-39.676 34.595,-37.029C39.036,-34.38 42.538,-30.449 45.101,-25.241C47.664,-20.03 48.945,-13.495 48.945,-5.638L48.945,-2.051L-0.127,-2.051C0.129,1.793 1.045,5.317 2.626,8.521C4.207,11.723 6.448,14.286 9.354,16.207C12.257,18.13 15.716,19.091 19.732,19.091C23.233,19.091 26.074,18.514 28.252,17.361C30.43,16.207 32.16,14.862 33.441,13.325C34.722,11.787 35.832,9.866 36.773,7.558L48.176,7.558C47.322,10.551 46.339,13.113 45.23,15.246C44.118,17.383 42.495,19.539 40.36,21.717C38.225,23.895 35.492,25.733 32.16,27.227C28.83,28.72 24.686,29.469 19.732,29.469" style="fill:white;fill-rule:nonzero;"/>
    </g>
    <g transform="matrix(0.127685,0,0,0.127685,107.825,38.7673)">
        <path d="M0,21.525C4.525,21.525 8.306,20.352 11.339,18.002C14.369,15.653 16.633,12.642 18.128,8.968C19.623,5.296 20.371,1.41 20.371,-2.691C20.371,-6.791 19.623,-10.699 18.128,-14.415C16.633,-18.13 14.369,-21.141 11.339,-23.447C8.306,-25.754 4.525,-26.906 0,-26.906C-4.529,-26.906 -8.33,-25.754 -11.404,-23.447C-14.479,-21.141 -16.766,-18.13 -18.26,-14.415C-19.755,-10.699 -20.501,-6.791 -20.501,-2.691C-20.501,1.41 -19.755,5.296 -18.26,8.968C-16.766,12.642 -14.479,15.653 -11.404,18.002C-8.33,20.352 -4.529,21.525 0,21.525M1.024,58.81C-4.613,58.81 -9.313,58.062 -13.07,56.568C-16.83,55.073 -19.841,53.192 -22.102,50.93C-24.366,48.666 -26.055,46.424 -27.164,44.203C-28.274,41.982 -29.171,39.376 -29.854,36.387L-17.682,36.387C-16.83,38.777 -15.783,40.743 -14.543,42.282C-13.307,43.818 -11.448,45.184 -8.97,46.381C-6.493,47.576 -3.163,48.174 1.024,48.174C5.978,48.174 9.865,47.214 12.684,45.293C15.502,43.37 17.53,40.873 18.77,37.798C20.007,34.721 20.627,31.477 20.627,28.059L20.627,20.244L19.988,20.244C19.132,21.697 17.787,23.341 15.951,25.177C14.112,27.014 11.701,28.594 8.712,29.917C5.721,31.243 2.049,31.903 -2.308,31.903C-7.433,31.903 -11.917,30.922 -15.761,28.956C-19.605,26.992 -22.787,24.344 -25.306,21.013C-27.826,17.681 -29.726,13.966 -31.008,9.865C-32.289,5.766 -32.929,1.582 -32.929,-2.691C-32.929,-6.961 -32.289,-11.147 -31.008,-15.248C-29.726,-19.347 -27.826,-23.063 -25.306,-26.394C-22.787,-29.725 -19.605,-32.371 -15.761,-34.339C-11.917,-36.302 -7.433,-37.285 -2.308,-37.285C2.049,-37.285 5.721,-36.622 8.712,-35.299C11.701,-33.974 14.112,-32.416 15.951,-30.622C17.787,-28.829 19.132,-27.163 19.988,-25.626L20.627,-25.626L20.627,-36.003L32.799,-36.003L32.799,27.932C32.799,37.413 30.045,44.927 24.535,50.482C19.025,56.033 11.189,58.81 1.024,58.81" style="fill:white;fill-rule:nonzero;"/>
    </g>
    <g transform="matrix(0.127685,0,0,0.127685,113.486,34.0066)">
        <path d="M0,69.188L0,1.281L12.172,1.281L12.172,9.737L12.684,9.737C14.135,7.174 16.271,4.913 19.091,2.946C21.909,0.983 25.88,0 31.006,0C32.458,0 34.379,0.128 36.771,0.385L36.771,12.043C34.123,11.788 32.073,11.658 30.622,11.658C24.729,11.658 20.179,13.347 16.977,16.72C13.772,20.095 12.172,25.583 12.172,33.184L12.172,69.188L0,69.188Z" style="fill:white;fill-rule:nonzero;"/>
    </g>
    <g transform="matrix(0.127685,0,0,0.127685,122.451,41.6794)">
        <path d="M0,-49.713C-4.529,-49.713 -8.328,-48.497 -11.403,-46.062C-14.478,-43.627 -16.765,-40.531 -18.258,-36.774C-19.753,-33.012 -20.5,-29.041 -20.5,-24.857C-20.5,-20.757 -19.753,-16.805 -18.258,-13.005C-16.765,-9.203 -14.478,-6.087 -11.403,-3.651C-8.328,-1.218 -4.529,-0.001 0,-0.001C4.527,-0.001 8.307,-1.218 11.339,-3.651C14.371,-6.087 16.635,-9.203 18.13,-13.005C19.624,-16.805 20.372,-20.757 20.372,-24.857C20.372,-29.041 19.624,-33.012 18.13,-36.774C16.635,-40.531 14.371,-43.627 11.339,-46.062C8.307,-48.497 4.527,-49.713 0,-49.713M-2.049,-60.091C2.221,-60.091 5.808,-59.407 8.712,-58.043C11.615,-56.675 13.965,-55.073 15.76,-53.238C17.554,-51.4 18.918,-49.67 19.86,-48.048L20.629,-48.048L20.629,-58.81L32.801,-58.81L32.801,9.097L20.629,9.097L20.629,-1.667L19.86,-1.667C18.918,-0.042 17.554,1.71 15.76,3.586C13.965,5.466 11.615,7.068 8.712,8.391C5.808,9.716 2.221,10.378 -2.049,10.378C-7.174,10.378 -11.66,9.372 -15.502,7.367C-19.346,5.361 -22.55,2.67 -25.113,-0.706C-27.674,-4.079 -29.597,-7.858 -30.878,-12.045C-32.16,-16.229 -32.8,-20.501 -32.8,-24.857C-32.8,-29.213 -32.16,-33.483 -30.878,-37.67C-29.597,-41.854 -27.674,-45.633 -25.113,-49.009C-22.55,-52.382 -19.346,-55.073 -15.502,-57.08C-11.66,-59.086 -7.174,-60.091 -2.049,-60.091" style="fill:white;fill-rule:nonzero;"/>
    </g>
    <g transform="matrix(0.127685,0,0,0.127685,128.111,34.0066)">
        <path d="M0,69.188L0,1.281L12.172,1.281L12.172,11.146L12.939,11.146C13.537,10.122 14.542,8.712 15.951,6.919C17.361,5.124 19.389,3.523 22.037,2.114C24.684,0.704 28.016,0 32.03,0C36.983,0 41.212,1.133 44.716,3.394C48.217,5.658 50.885,8.712 52.723,12.557C54.56,16.399 55.478,20.714 55.478,25.496L55.478,69.188L43.306,69.188L43.306,26.265C43.306,21.738 42.045,17.982 39.527,14.99C37.006,12.001 33.355,10.506 28.571,10.506C24.729,10.506 21.609,11.467 19.219,13.388C16.827,15.311 15.054,17.831 13.902,20.948C12.748,24.068 12.172,27.376 12.172,30.878L12.172,69.188L0,69.188Z" style="fill:white;fill-rule:nonzero;"/>
    </g>
    <g transform="matrix(0.127685,0,0,0.127685,140.692,31.7325)">
        <path d="M0,77.901C4.527,77.901 8.307,76.684 11.339,74.25C14.371,71.815 16.635,68.698 18.13,64.896C19.624,61.097 20.372,57.144 20.372,53.045C20.372,48.861 19.624,44.889 18.13,41.128C16.635,37.37 14.371,34.275 11.339,31.839C8.307,29.404 4.527,28.189 0,28.189C-4.528,28.189 -8.328,29.404 -11.403,31.839C-14.478,34.275 -16.764,37.37 -18.258,41.128C-19.753,44.889 -20.5,48.861 -20.5,53.045C-20.5,57.144 -19.753,61.097 -18.258,64.896C-16.764,68.698 -14.478,71.815 -11.403,74.25C-8.328,76.684 -4.528,77.901 0,77.901M-2.049,88.279C-7.174,88.279 -11.66,87.274 -15.502,85.268C-19.346,83.262 -22.55,80.572 -25.113,77.196C-27.674,73.822 -29.597,70.044 -30.878,65.857C-32.16,61.672 -32.799,57.401 -32.799,53.045C-32.799,48.689 -32.16,44.419 -30.878,40.232C-29.597,36.047 -27.674,32.269 -25.113,28.892C-22.55,25.519 -19.346,22.829 -15.502,20.821C-11.66,18.816 -7.174,17.81 -2.049,17.81C2.221,17.81 5.809,18.495 8.712,19.859C11.615,21.227 13.966,22.829 15.761,24.664C17.554,26.502 18.919,28.232 19.86,29.853L20.629,29.853L20.629,-10.378L32.801,-10.378L32.801,86.998L20.629,86.998L20.629,76.235L19.86,76.235C18.919,77.859 17.554,79.611 15.761,81.488C13.966,83.368 11.615,84.97 8.712,86.293C5.809,87.617 2.221,88.279 -2.049,88.279" style="fill:white;fill-rule:nonzero;"/>
    </g>
    <g transform="matrix(0.127685,0,0,0.127685,150.622,35.3646)">
        <path d="M0,49.199C4.612,49.199 8.477,48.026 11.595,45.676C14.712,43.328 17.06,40.274 18.643,36.515C20.223,32.757 21.012,28.785 21.012,24.6C21.012,20.329 20.223,16.336 18.643,12.619C17.06,8.905 14.712,5.872 11.595,3.522C8.477,1.175 4.612,-0.001 0,-0.001C-4.528,-0.001 -8.372,1.175 -11.532,3.522C-14.693,5.872 -17.062,8.905 -18.642,12.619C-20.224,16.336 -21.014,20.329 -21.014,24.6C-21.014,28.785 -20.224,32.757 -18.642,36.515C-17.062,40.274 -14.693,43.328 -11.532,45.676C-8.372,48.026 -4.528,49.199 0,49.199M0,59.834C-7.262,59.834 -13.37,58.149 -18.322,54.773C-23.278,51.399 -27.036,47.021 -29.597,41.64C-32.16,36.26 -33.441,30.579 -33.441,24.6C-33.441,18.536 -32.16,12.833 -29.597,7.494C-27.036,2.157 -23.278,-2.198 -18.322,-5.575C-13.37,-8.948 -7.262,-10.635 0,-10.635C7.259,-10.635 13.367,-8.948 18.322,-5.575C23.275,-2.198 27.035,2.157 29.597,7.494C32.16,12.833 33.441,18.536 33.441,24.6C33.441,30.579 32.16,36.26 29.597,41.64C27.035,47.021 23.275,51.399 18.322,54.773C13.367,58.149 7.259,59.834 0,59.834" style="fill:white;fill-rule:nonzero;"/>
    </g>
    <g transform="matrix(0.127685,0,0,0.127685,78.7209,53.8318)">
        <path d="M0,-11.53L37.03,-11.53C36.857,-15.971 35.918,-19.58 34.21,-22.357C32.501,-25.132 30.323,-27.205 27.676,-28.572C25.027,-29.937 22.209,-30.621 19.22,-30.621C13.838,-30.621 9.439,-28.891 6.022,-25.433C2.606,-21.974 0.597,-17.339 0,-11.53M19.732,29.47C14.178,29.47 9.374,28.465 5.318,26.459C1.259,24.452 -2.071,21.74 -4.675,18.322C-7.283,14.907 -9.225,11.127 -10.506,6.983C-11.787,2.841 -12.427,-1.409 -12.427,-5.765C-12.427,-10.035 -11.81,-14.264 -10.57,-18.449C-9.333,-22.633 -7.41,-26.436 -4.804,-29.854C-2.2,-33.268 1.09,-35.981 5.062,-37.988C9.033,-39.994 13.752,-41 19.22,-41C25.027,-41 30.152,-39.675 34.595,-37.028C39.036,-34.379 42.538,-30.449 45.101,-25.24C47.664,-20.029 48.945,-13.494 48.945,-5.637L48.945,-2.05L-0.127,-2.05C0.129,1.794 1.045,5.317 2.627,8.521C4.207,11.724 6.448,14.286 9.354,16.208C12.257,18.131 15.716,19.091 19.732,19.091C23.233,19.091 26.074,18.515 28.252,17.362C30.43,16.208 32.16,14.863 33.441,13.326C34.723,11.788 35.832,9.866 36.773,7.559L48.176,7.559C47.322,10.551 46.339,13.114 45.23,15.247C44.118,17.384 42.495,19.54 40.36,21.718C38.225,23.896 35.492,25.734 32.16,27.228C28.83,28.721 24.686,29.47 19.732,29.47" style="fill:white;fill-rule:nonzero;"/>
    </g>
    <g transform="matrix(0.127685,0,0,0.127685,89.453,48.5967)">
        <path d="M0,70.469C-5.211,70.469 -9.504,69.741 -12.877,68.291C-16.252,66.839 -18.92,65.023 -20.884,62.845C-22.85,60.667 -24.302,58.489 -25.241,56.31C-26.182,54.133 -26.907,51.592 -27.419,48.688L-15.119,48.688C-14.522,50.994 -13.731,52.896 -12.748,54.389C-11.768,55.885 -10.23,57.207 -8.136,58.361C-6.044,59.514 -3.247,60.091 0.255,60.091C4.27,60.091 7.387,59.13 9.609,57.207C11.829,55.286 12.941,52.916 12.941,50.097C12.941,47.62 12.063,45.656 10.314,44.202C8.563,42.752 6.064,41.641 2.818,40.872L-6.407,38.694C-9.823,37.84 -13.027,36.688 -16.016,35.235C-19.006,33.782 -21.419,31.797 -23.255,29.276C-25.092,26.758 -26.01,23.619 -26.01,19.859C-26.01,14.052 -23.832,9.288 -19.476,5.572C-15.119,1.857 -9.44,0 -2.435,0C2.263,0 6.15,0.662 9.225,1.985C12.3,3.311 14.754,4.954 16.592,6.919C18.429,8.885 19.796,10.847 20.693,12.812C21.59,14.778 22.293,17.085 22.806,19.731L11.019,19.731C10.506,17.766 9.801,16.166 8.904,14.926C8.007,13.689 6.662,12.577 4.869,11.594C3.075,10.615 0.683,10.121 -2.306,10.121C-6.407,10.121 -9.397,11.063 -11.275,12.94C-13.155,14.821 -14.095,16.87 -14.095,19.091C-14.095,21.226 -13.219,22.956 -11.468,24.28C-9.718,25.604 -7.431,26.608 -4.613,27.29L4.741,29.469C10.548,30.835 15.353,33.079 19.155,36.195C22.954,39.315 24.856,43.776 24.856,49.585C24.856,53.344 23.874,56.824 21.909,60.027C19.943,63.229 17.125,65.773 13.454,67.65C9.78,69.528 5.295,70.469 0,70.469" style="fill:white;fill-rule:nonzero;"/>
    </g>
    <g transform="matrix(0.127685,0,0,0.127685,97.2893,46.5844)">
        <path d="M0,86.229C-7.005,86.229 -12.28,84.436 -15.823,80.848C-19.369,77.26 -21.141,72.221 -21.141,65.729L-21.141,27.035L-33.313,27.035L-33.313,17.041L-21.141,17.041L-21.141,0L-8.969,0L-8.969,17.041L7.559,17.041L7.559,27.035L-8.969,27.035L-8.969,65.729C-8.969,69.146 -8.029,71.645 -6.15,73.224C-4.271,74.806 -1.537,75.594 2.05,75.594C3.929,75.594 6.576,75.338 9.994,74.826L9.994,85.205C6.064,85.886 2.733,86.229 0,86.229" style="fill:white;fill-rule:nonzero;"/>
    </g>
    <g transform="matrix(0.127685,0,0,0.127685,99.7923,48.5967)">
        <path d="M0,69.188L0,1.282L12.172,1.282L12.172,9.737L12.685,9.737C14.135,7.174 16.271,4.913 19.091,2.946C21.909,0.983 25.881,0 31.006,0C32.458,0 34.379,0.128 36.771,0.385L36.771,12.043C34.123,11.788 32.074,11.659 30.622,11.659C24.729,11.659 20.179,13.347 16.977,16.72C13.773,20.095 12.172,25.583 12.172,33.185L12.172,69.188L0,69.188Z" style="fill:white;fill-rule:nonzero;"/>
    </g>
    <g transform="matrix(0.127685,0,0,0.127685,108.218,48.7603)">
        <path d="M0,69.188C-6.75,69.188 -12.13,67.096 -16.144,62.909C-20.16,58.725 -22.166,52.915 -22.166,45.484L-22.166,0L-9.994,0L-9.994,44.844C-9.994,49.287 -8.778,52.705 -6.343,55.093C-3.908,57.487 -0.685,58.682 3.331,58.682C7.431,58.682 10.718,57.614 13.196,55.478C15.673,53.344 17.467,50.609 18.579,47.278C19.687,43.947 20.243,40.532 20.243,37.028L20.243,0L32.415,0L32.415,67.907L20.243,67.907L20.243,58.17L19.476,58.17C18.962,59.194 17.979,60.584 16.528,62.333C15.075,64.085 13.024,65.665 10.378,67.074C7.729,68.483 4.27,69.188 0,69.188" style="fill:white;fill-rule:nonzero;"/>
    </g>
    <g transform="matrix(0.127685,0,0,0.127685,117.935,48.5967)">
        <path d="M0,70.469C-5.555,70.469 -10.423,69.464 -14.607,67.458C-18.792,65.452 -22.274,62.762 -25.049,59.386C-27.826,56.012 -29.918,52.234 -31.327,48.047C-32.737,43.863 -33.441,39.591 -33.441,35.235C-33.441,30.878 -32.76,26.631 -31.392,22.485C-30.026,18.344 -27.954,14.564 -25.177,11.146C-22.402,7.731 -18.922,5.018 -14.735,3.011C-10.551,1.005 -5.638,0 0,0C5.465,0 9.994,0.812 13.581,2.433C17.168,4.058 20.051,6.086 22.229,8.519C24.408,10.954 26.029,13.388 27.098,15.823C28.166,18.258 29.04,21.098 29.725,24.344L17.937,24.344C17.082,21.524 16.058,19.219 14.862,17.425C13.666,15.632 11.872,14.03 9.481,12.62C7.088,11.21 3.927,10.506 0,10.506C-4.699,10.506 -8.649,11.68 -11.853,14.03C-15.056,16.38 -17.447,19.432 -19.027,23.19C-20.608,26.949 -21.398,30.965 -21.398,35.235C-21.398,39.506 -20.608,43.521 -19.027,47.279C-17.447,51.038 -15.056,54.091 -11.853,56.44C-8.649,58.79 -4.699,59.963 0,59.963C3.927,59.963 7.088,59.258 9.481,57.849C11.872,56.44 13.666,54.838 14.862,53.044C16.058,51.251 17.082,48.943 17.937,46.125L29.725,46.125C29.04,49.372 28.166,52.211 27.098,54.646C26.029,57.08 24.408,59.514 22.229,61.948C20.051,64.383 17.168,66.413 13.581,68.034C9.994,69.657 5.465,70.469 0,70.469" style="fill:white;fill-rule:nonzero;"/>
    </g>
    <g transform="matrix(0.127685,0,0,0.127685,126.72,46.5844)">
        <path d="M0,86.229C-7.005,86.229 -12.28,84.436 -15.823,80.848C-19.369,77.26 -21.142,72.221 -21.142,65.729L-21.142,27.035L-33.313,27.035L-33.313,17.041L-21.142,17.041L-21.142,0L-8.97,0L-8.97,17.041L7.559,17.041L7.559,27.035L-8.97,27.035L-8.97,65.729C-8.97,69.146 -8.03,71.645 -6.15,73.224C-4.272,74.806 -1.537,75.594 2.05,75.594C3.929,75.594 6.576,75.338 9.994,74.826L9.994,85.205C6.063,85.886 2.733,86.229 0,86.229" style="fill:white;fill-rule:nonzero;"/>
    </g>
    <g transform="matrix(0.127685,0,0,0.127685,132.054,48.7603)">
        <path d="M0,69.188C-6.75,69.188 -12.131,67.096 -16.144,62.909C-20.16,58.725 -22.166,52.915 -22.166,45.484L-22.166,0L-9.994,0L-9.994,44.844C-9.994,49.287 -8.778,52.705 -6.343,55.093C-3.908,57.487 -0.685,58.682 3.33,58.682C7.431,58.682 10.718,57.614 13.196,55.478C15.673,53.344 17.466,50.609 18.579,47.278C19.686,43.947 20.243,40.532 20.243,37.028L20.243,0L32.415,0L32.415,67.907L20.243,67.907L20.243,58.17L19.475,58.17C18.961,59.194 17.979,60.584 16.528,62.333C15.074,64.085 13.024,65.665 10.378,67.074C7.729,68.483 4.27,69.188 0,69.188" style="fill:white;fill-rule:nonzero;"/>
    </g>
    <g transform="matrix(0.127685,0,0,0.127685,137.665,48.5967)">
        <path d="M0,69.188L0,1.282L12.172,1.282L12.172,9.737L12.684,9.737C14.135,7.174 16.271,4.913 19.091,2.946C21.909,0.983 25.881,0 31.006,0C32.458,0 34.379,0.128 36.771,0.385L36.771,12.043C34.123,11.788 32.074,11.659 30.622,11.659C24.729,11.659 20.179,13.347 16.977,16.72C13.772,20.095 12.172,25.583 12.172,33.185L12.172,69.188L0,69.188Z" style="fill:white;fill-rule:nonzero;"/>
    </g>
    <g transform="matrix(0.127685,0,0,0.127685,146.63,56.2695)">
        <path d="M0,-49.713C-4.528,-49.713 -8.328,-48.497 -11.403,-46.062C-14.478,-43.627 -16.764,-40.531 -18.258,-36.773C-19.753,-33.012 -20.5,-29.041 -20.5,-24.857C-20.5,-20.757 -19.753,-16.805 -18.258,-13.005C-16.764,-9.203 -14.478,-6.087 -11.403,-3.651C-8.328,-1.218 -4.528,-0.001 0,-0.001C4.527,-0.001 8.307,-1.218 11.339,-3.651C14.371,-6.087 16.635,-9.203 18.13,-13.005C19.624,-16.805 20.372,-20.757 20.372,-24.857C20.372,-29.041 19.624,-33.012 18.13,-36.773C16.635,-40.531 14.371,-43.627 11.339,-46.062C8.307,-48.497 4.527,-49.713 0,-49.713M-2.049,-60.091C2.221,-60.091 5.808,-59.407 8.712,-58.042C11.615,-56.675 13.965,-55.073 15.761,-53.237C17.554,-51.4 18.918,-49.67 19.86,-48.048L20.629,-48.048L20.629,-58.81L32.801,-58.81L32.801,9.097L20.629,9.097L20.629,-1.666L19.86,-1.666C18.918,-0.042 17.554,1.71 15.761,3.587C13.965,5.466 11.615,7.068 8.712,8.391C5.808,9.716 2.221,10.378 -2.049,10.378C-7.174,10.378 -11.66,9.373 -15.502,7.367C-19.346,5.361 -22.55,2.671 -25.113,-0.706C-27.674,-4.079 -29.597,-7.858 -30.878,-12.045C-32.16,-16.229 -32.8,-20.501 -32.8,-24.857C-32.8,-29.213 -32.16,-33.483 -30.878,-37.67C-29.597,-41.854 -27.674,-45.633 -25.113,-49.009C-22.55,-52.382 -19.346,-55.073 -15.502,-57.08C-11.66,-59.086 -7.174,-60.091 -2.049,-60.091" style="fill:white;fill-rule:nonzero;"/>
    </g>
    <g transform="matrix(0.127685,0,0,0.127685,155.464,48.5967)">
        <path d="M0,70.469C-5.212,70.469 -9.504,69.741 -12.877,68.291C-16.252,66.839 -18.92,65.023 -20.885,62.845C-22.851,60.667 -24.303,58.489 -25.241,56.31C-26.182,54.133 -26.907,51.592 -27.419,48.688L-15.12,48.688C-14.522,50.994 -13.731,52.896 -12.748,54.389C-11.769,55.885 -10.23,57.207 -8.137,58.361C-6.044,59.514 -3.248,60.091 0.255,60.091C4.27,60.091 7.386,59.13 9.609,57.207C11.829,55.286 12.941,52.916 12.941,50.097C12.941,47.62 12.063,45.656 10.314,44.202C8.563,42.752 6.063,41.641 2.818,40.872L-6.407,38.694C-9.823,37.84 -13.027,36.688 -16.016,35.235C-19.006,33.782 -21.419,31.797 -23.256,29.276C-25.092,26.758 -26.01,23.619 -26.01,19.859C-26.01,14.052 -23.832,9.288 -19.476,5.572C-15.12,1.857 -9.44,0 -2.435,0C2.263,0 6.149,0.662 9.225,1.985C12.299,3.311 14.754,4.954 16.592,6.919C18.429,8.885 19.796,10.847 20.693,12.812C21.589,14.778 22.293,17.085 22.806,19.731L11.018,19.731C10.506,17.766 9.801,16.166 8.904,14.926C8.007,13.689 6.662,12.577 4.868,11.594C3.075,10.615 0.683,10.121 -2.306,10.121C-6.407,10.121 -9.397,11.063 -11.275,12.94C-13.155,14.821 -14.095,16.87 -14.095,19.091C-14.095,21.226 -13.219,22.956 -11.468,24.28C-9.718,25.604 -7.431,26.608 -4.613,27.29L4.741,29.469C10.547,30.835 15.352,33.079 19.154,36.195C22.954,39.315 24.856,43.776 24.856,49.585C24.856,53.344 23.873,56.824 21.909,60.027C19.943,63.229 17.125,65.773 13.453,67.65C9.78,69.528 5.294,70.469 0,70.469" style="fill:white;fill-rule:nonzero;"/>
    </g>
    <g transform="matrix(-0.127685,0,0,0.127685,629.375,-14.9118)">
        <rect x="4363.23" y="349.166" width="12.253" height="225.504" style="fill:white;"/>
    </g>
</svg>
