<?xml version="1.0" encoding="UTF-8" standalone="no"?>
<!DOCTYPE svg PUBLIC "-//W3C//DTD SVG 1.1//EN" "http://www.w3.org/Graphics/SVG/1.1/DTD/svg11.dtd">
<svg width="100%" height="100%" viewBox="0 0 128 128" version="1.1" xmlns="http://www.w3.org/2000/svg" xmlns:xlink="http://www.w3.org/1999/xlink" xml:space="preserve" xmlns:serif="http://www.serif.com/" style="fill-rule:evenodd;clip-rule:evenodd;stroke-linejoin:round;stroke-miterlimit:2;">
    <g transform="matrix(1.88624,0,0,1.87569,-1564.88,-367.061)">
        <path d="M891.592,256.913L844.658,256.913L844.658,250.554L849.705,250.554L849.705,253.078C849.705,253.784 850.31,254.39 851.017,254.39C851.723,254.39 852.329,253.784 852.329,253.078L852.329,250.554L853.439,250.554L853.439,253.078C853.439,253.784 854.044,254.39 854.751,254.39C855.458,254.39 856.064,253.784 856.064,253.078L856.064,250.554L857.375,250.554L857.375,253.078C857.375,253.784 857.981,254.39 858.688,254.39C859.394,254.39 860,253.784 860,253.078L860,250.554L861.312,250.554L861.312,253.078C861.312,253.784 861.917,254.39 862.625,254.39C863.331,254.39 863.936,253.784 863.936,253.078L863.936,250.554L865.249,250.554L865.249,253.078C865.249,253.784 865.854,254.39 866.561,254.39C867.267,254.39 867.873,253.784 867.873,253.078L867.873,250.554L868.58,250.554L868.58,253.078C868.58,253.784 869.185,254.39 869.892,254.39C870.598,254.39 871.204,253.784 871.204,253.078L871.204,250.554L872.516,250.554L872.516,253.078C872.516,253.784 873.122,254.39 873.828,254.39C874.535,254.39 875.14,253.784 875.14,253.078L875.14,250.554L876.453,250.554L876.453,253.078C876.453,253.784 877.058,254.39 877.764,254.39C878.471,254.39 879.077,253.784 879.077,253.078L879.077,250.554L880.389,250.554L880.389,253.078C880.389,253.784 880.995,254.39 881.701,254.39C882.408,254.39 883.013,253.784 883.013,253.078L883.013,250.554L883.719,250.554L883.719,253.078C883.719,253.784 884.326,254.39 885.032,254.39C885.738,254.39 886.344,253.784 886.344,253.078L886.344,250.554L887.656,250.554L887.656,253.078C887.656,253.784 888.261,254.39 888.968,254.39C889.674,254.39 890.281,253.784 890.281,253.078L890.281,250.554L891.592,250.554L891.592,256.913ZM835.776,255.601L838.299,255.601C839.005,255.601 839.611,254.996 839.611,254.289C839.611,253.583 839.005,252.977 838.299,252.977L835.776,252.977L835.776,251.665L838.299,251.665C839.005,251.665 839.611,251.059 839.611,250.353C839.611,249.646 839.005,249.04 838.299,249.04L835.776,249.04L835.776,247.728L838.299,247.728C839.005,247.728 839.611,247.123 839.611,246.416C839.611,245.71 839.005,245.104 838.299,245.104L835.776,245.104L835.776,243.792L838.299,243.792C839.005,243.792 839.611,243.186 839.611,242.48C839.611,241.773 839.005,241.168 838.299,241.168L835.776,241.168L835.776,240.461L838.299,240.461C839.005,240.461 839.611,239.856 839.611,239.149C839.611,238.442 839.005,237.837 838.299,237.837L835.776,237.837L835.776,236.524L838.299,236.524C839.005,236.524 839.611,235.919 839.611,235.212C839.611,234.506 839.005,233.9 838.299,233.9L835.776,233.9L835.776,232.588L838.299,232.588C839.005,232.588 839.611,231.983 839.611,231.276C839.611,230.569 839.005,230.367 838.299,230.367L835.776,230.367L835.776,229.055L838.299,229.055C839.005,229.055 839.611,228.45 839.611,227.743C839.611,227.037 839.005,226.431 838.299,226.431L835.776,226.431L835.776,225.321L838.299,225.321C839.005,225.321 839.611,224.715 839.611,224.008C839.611,223.302 839.005,222.696 838.299,222.696L835.776,222.696L835.776,221.384L838.299,221.384C839.005,221.384 839.611,220.778 839.611,220.072C839.611,219.365 839.005,218.76 838.299,218.76L835.776,218.76L835.776,217.448L838.299,217.448C839.005,217.448 839.611,216.842 839.611,216.136C839.611,215.429 839.005,214.823 838.299,214.823L835.776,214.823L835.776,213.511L838.299,213.511C839.005,213.511 839.611,212.906 839.611,212.199C839.611,211.493 839.005,210.887 838.299,210.887L835.776,210.887L835.776,210.181L842.134,210.181L842.134,256.913L835.776,256.913L835.776,255.601ZM892.602,226.633C891.895,226.633 891.29,227.238 891.29,227.945L891.29,248.132L844.658,248.132L844.658,208.969C844.658,208.263 844.052,207.657 843.346,207.657L834.463,207.657C833.757,207.657 833.152,208.263 833.152,208.969L833.152,258.226C833.152,258.932 833.757,259.538 834.463,259.538L892.5,259.538C893.208,259.538 893.813,258.932 893.813,258.226L893.813,227.945C893.813,227.138 893.208,226.633 892.602,226.633Z" style="fill:rgb(9,15,55);fill-rule:nonzero;"/>
    </g>
    <g transform="matrix(1.88624,0,0,1.87569,-1564.88,-367.061)">
        <rect x="881.197" y="226.633" width="5.046" height="2.523" style="fill:rgb(9,15,55);fill-rule:nonzero;"/>
    </g>
    <g transform="matrix(1.88624,0,0,1.87569,-1564.88,-367.061)">
        <rect x="887.555" y="226.633" width="2.524" height="2.523" style="fill:rgb(9,15,55);fill-rule:nonzero;"/>
    </g>
    <g transform="matrix(1.88624,0,0,1.87569,-1564.88,-367.061)">
        <rect x="853.439" y="211.493" width="5.047" height="2.523" style="fill:rgb(9,15,55);fill-rule:nonzero;"/>
    </g>
    <g transform="matrix(1.88624,0,0,1.87569,-1564.88,-367.061)">
        <rect x="859.798" y="211.493" width="2.524" height="2.523" style="fill:rgb(9,15,55);fill-rule:nonzero;"/>
    </g>
    <g transform="matrix(1.88624,0,0,1.87569,-1564.88,-367.061)">
        <path d="M854.751,220.274C855.476,220.274 856.064,220.861 856.064,221.586C856.064,222.311 855.476,222.899 854.751,222.899C854.027,222.899 853.439,222.311 853.439,221.586C853.439,220.861 854.027,220.274 854.751,220.274Z" style="fill:rgb(9,15,55);fill-rule:nonzero;"/>
    </g>
    <g transform="matrix(1.88624,0,0,1.87569,-1564.88,-367.061)">
        <path d="M888.766,242.984C889.491,242.984 890.079,243.572 890.079,244.296C890.079,245.021 889.491,245.608 888.766,245.608C888.042,245.608 887.455,245.021 887.455,244.296C887.455,243.572 888.042,242.984 888.766,242.984Z" style="fill:rgb(9,15,55);fill-rule:nonzero;"/>
    </g>
    <g transform="matrix(1.88624,0,0,1.87569,-1564.88,-367.061)">
        <path d="M888.766,217.751C889.491,217.751 890.079,218.338 890.079,219.063C890.079,219.787 889.491,220.375 888.766,220.375C888.042,220.375 887.455,219.787 887.455,219.063C887.455,218.338 888.042,217.751 888.766,217.751Z" style="fill:rgb(9,15,55);fill-rule:nonzero;"/>
    </g>
    <g transform="matrix(1.88624,0,0,1.87569,-1564.88,-367.061)">
        <path d="M883.719,232.891C884.444,232.891 885.032,233.478 885.032,234.203C885.032,234.928 884.444,235.515 883.719,235.515C882.995,235.515 882.408,234.928 882.408,234.203C882.408,233.478 882.995,232.891 883.719,232.891Z" style="fill:rgb(9,15,55);fill-rule:nonzero;"/>
    </g>
    <g transform="matrix(1.88624,0,0,1.87569,-1564.88,-367.061)">
        <path d="M861.009,242.984C861.734,242.984 862.322,243.572 862.322,244.296C862.322,245.021 861.734,245.608 861.009,245.608C860.285,245.608 859.697,245.021 859.697,244.296C859.697,243.572 860.285,242.984 861.009,242.984Z" style="fill:rgb(9,15,55);fill-rule:nonzero;"/>
    </g>
    <g transform="matrix(1.88624,0,0,1.87569,-1564.88,-367.061)">
        <path d="M843.346,201.298C844.071,201.298 844.658,201.886 844.658,202.61C844.658,203.335 844.071,203.922 843.346,203.922C842.621,203.922 842.034,203.335 842.034,202.61C842.034,201.886 842.621,201.298 843.346,201.298Z" style="fill:rgb(9,15,55);fill-rule:nonzero;"/>
    </g>
    <g transform="matrix(1.88624,0,0,1.87569,-1564.88,-367.061)">
        <path d="M885.132,203.418C885.94,202.61 887.252,202.61 888.06,203.418L890.482,205.84C891.29,206.648 891.29,207.96 890.482,208.768L888.363,210.887L883.013,205.538L885.132,203.418ZM861.312,237.938L860.404,235.212L882.206,213.41L884.022,215.227L861.312,237.938ZM881.297,207.253L886.647,212.603L885.738,213.511L880.389,208.162L881.297,207.253ZM878.572,209.979L880.389,211.795L858.586,233.497L855.862,232.588L878.572,209.979ZM854.449,234.809L857.981,236.02L859.193,239.552L852.833,241.269L854.449,234.809ZM852.43,232.79C852.43,232.891 850.714,238.846 849.705,242.681C849.402,243.59 850.31,244.498 851.218,244.195C853.238,243.691 861.009,241.571 861.009,241.47C861.211,241.369 861.414,241.268 861.514,241.168C861.716,241.168 886.647,216.236 886.647,216.236C886.748,216.136 889.372,213.511 889.372,213.511C891.189,211.694 890.583,212.3 892.4,210.483C894.216,208.667 894.216,205.84 892.4,204.024L889.978,201.601C888.161,199.784 885.334,199.784 883.518,201.601L852.733,232.285C852.531,232.386 852.43,232.588 852.43,232.79Z" style="fill:rgb(9,15,55);fill-rule:nonzero;"/>
    </g>
    <g transform="matrix(1.88624,0,0,1.87569,-1564.88,-367.061)">
        <path d="M848.392,235.414C849.099,235.414 849.705,234.809 849.705,234.102L849.705,207.657L858.486,207.657C859.193,207.657 859.798,207.051 859.798,206.345C859.798,205.638 859.193,205.033 858.486,205.033L848.392,205.033C847.686,205.033 847.081,205.638 847.081,206.345L847.081,234.102C847.181,234.809 847.686,235.414 848.392,235.414Z" style="fill:rgb(9,15,55);fill-rule:nonzero;"/>
    </g>
    <g transform="matrix(1.88624,0,0,1.87569,-1564.88,-367.061)">
        <path d="M863.533,244.296C863.533,245.003 864.138,245.608 864.845,245.608L885.032,245.608C885.738,245.608 886.344,245.003 886.344,244.296C886.344,243.59 885.738,242.984 885.032,242.984L864.845,242.984C864.138,242.984 863.533,243.59 863.533,244.296Z" style="fill:rgb(9,15,55);fill-rule:nonzero;"/>
    </g>
    <g transform="matrix(1.88624,0,0,1.87569,-1564.88,-367.061)">
        <path d="M876.15,237.332C876.15,237.029 876.453,236.726 876.755,236.726C877.058,236.726 877.361,237.029 877.361,237.332C877.361,237.635 877.058,237.938 876.755,237.938C876.453,237.938 876.15,237.635 876.15,237.332ZM879.985,237.332C879.985,235.616 878.572,234.203 876.856,234.203C875.14,234.203 873.727,235.616 873.727,237.332C873.727,239.048 875.14,240.461 876.856,240.461C878.471,240.461 879.985,239.048 879.985,237.332Z" style="fill:rgb(9,15,55);fill-rule:nonzero;"/>
    </g>
    <g transform="matrix(1.88624,0,0,1.87569,-1564.88,-367.061)">
        <path d="M867.369,202.61C868.075,202.61 868.68,203.216 868.68,203.922C868.68,204.629 868.075,205.235 867.369,205.235C866.662,205.235 866.056,204.629 866.056,203.922C866.056,203.216 866.662,202.61 867.369,202.61ZM867.369,207.657C869.488,207.657 871.204,205.941 871.204,203.822C871.204,201.702 869.387,200.087 867.369,200.087C865.349,200.087 863.533,201.803 863.533,203.922C863.533,206.042 865.249,207.657 867.369,207.657Z" style="fill:rgb(9,15,55);fill-rule:nonzero;"/>
    </g>
</svg>
